<?xml version="1.0" encoding="UTF-8"?>
<svg version="1.1" xmlns="http://www.w3.org/2000/svg" width="500" height="500">
<path d="M0 0 C1.18903931 0.01135986 1.18903931 0.01135986 2.40209961 0.02294922 C8.40066834 0.19216654 12.97180271 1.12957727 18.0625 4.4375 C19.14144531 5.07365234 19.14144531 5.07365234 20.2421875 5.72265625 C26.46626395 9.58847536 31.75636244 14.41561981 37.0625 19.4375 C37.7534375 20.07558594 38.444375 20.71367188 39.15625 21.37109375 C54.97174231 36.46484733 66.47649436 57.39457257 74.5 77.5625 C76.63815373 82.35196436 79.12579999 84.33102856 83.6015625 86.92578125 C100.2944075 97.17995746 111.8578524 115.26286462 116.71289062 133.93945312 C122.50213048 158.76885961 120.07517352 182.03930909 106.75 204.1875 C99.60088169 214.94994709 89.47637688 223.79465057 76.73828125 227.02734375 C67.39801631 228.45906319 57.2464442 228.68057133 49.0625 223.4375 C42.78852922 218.37784615 40.15725477 212.32650604 39.0625 204.4375 C38.57112253 197.11477723 41.35136016 191.91915337 46.0625 186.4375 C52.52820501 181.07234053 59.4980043 179.94316651 67.6953125 180.03515625 C71.50733976 180.49065371 74.86503666 181.60584065 78.4375 182.9375 C86.29642659 185.82768713 94.45189827 187.41822565 102.57421875 184.55078125 C108.63259023 181.18004222 110.79340982 176.51957616 113.375 170.25 C115.08457217 160.76964525 112.92736219 152.10529774 109.0625 143.4375 C108.48048828 142.11298828 108.48048828 142.11298828 107.88671875 140.76171875 C103.30701621 131.42669085 95.66154839 122.36220319 87.0625 116.4375 C87.22363281 117.18257813 87.38476562 117.92765625 87.55078125 118.6953125 C88.26361738 123.9082668 88.2467994 129.05711313 88.25 134.3125 C88.26224609 135.36308594 88.27449219 136.41367188 88.28710938 137.49609375 C88.31102887 150.23721037 85.03765069 163.41526828 75.9296875 172.81640625 C69.50752721 178.39213119 62.47286891 179.71929071 54.0625 179.4375 C45.49931122 177.97021203 38.84530782 174.17650761 33.3828125 167.3984375 C25.4472654 155.61250661 27.99355648 138.1109463 28.5 124.5625 C28.55340385 122.98830382 28.60614186 121.4140849 28.65820312 119.83984375 C28.78532488 116.0387577 28.92134621 112.23808976 29.0625 108.4375 C23.09061875 109.09077762 18.53010225 110.14095053 13.125 112.75 C12.39772705 113.09901367 11.6704541 113.44802734 10.92114258 113.80761719 C-18.69972993 128.58464285 -37.42452943 153.51025203 -47.9375 184.4375 C-48.58984486 186.68562074 -49.23570961 188.93563222 -49.875 191.1875 C-52.87667556 201.07397108 -57.99899979 208.09461619 -66.9375 213.4375 C-73.56336431 216.50209434 -79.83614941 217.16642359 -86.9375 215.4375 C-91.26398609 213.78895961 -95.50706859 211.58206212 -98.9375 208.4375 C-98.9375 207.7775 -98.9375 207.1175 -98.9375 206.4375 C-99.5975 206.4375 -100.2575 206.4375 -100.9375 206.4375 C-106.05969218 196.86447092 -108.13535177 187.68570336 -108.125 176.875 C-108.12491943 176.08359619 -108.12483887 175.29219238 -108.12475586 174.47680664 C-108.06848443 168.61924684 -107.47442536 163.0056068 -106.43359375 157.234375 C-106.0101618 154.84715234 -105.74850166 152.53848497 -105.5625 150.125 C-102.74222661 123.47827904 -90.8002516 94.64598424 -77.9375 71.4375 C-77.38956787 70.43662354 -77.38956787 70.43662354 -76.83056641 69.41552734 C-61.9408347 42.45031766 -41.19753818 11.85880104 -11.03735352 1.01098633 C-7.36823292 0.00892096 -3.78435677 -0.05081839 0 0 Z M-10.9375 51.4375 C-12.51194468 53.54603192 -13.93145705 55.58731464 -15.3125 57.8125 C-15.69825195 58.42536865 -16.08400391 59.0382373 -16.48144531 59.66967773 C-22.77016203 69.83885982 -28.66679627 80.90486237 -31.9375 92.4375 C-31.6075 93.4275 -31.2775 94.4175 -30.9375 95.4375 C-29.844375 94.880625 -28.75125 94.32375 -27.625 93.75 C-11.37579254 85.66462833 5.53684386 80.06683795 23.0625 75.4375 C21.67778732 65.38716607 17.12269704 53.98641491 9.48828125 46.99609375 C2.18463543 41.71612813 -5.00988892 46.11808179 -10.9375 51.4375 Z " fill="#023AB4" transform="translate(243.9375,91.5625)"/>
<path d="M0 0 C1.18903931 0.01135986 1.18903931 0.01135986 2.40209961 0.02294922 C8.40066834 0.19216654 12.97180271 1.12957727 18.0625 4.4375 C19.14144531 5.07365234 19.14144531 5.07365234 20.2421875 5.72265625 C26.46626395 9.58847536 31.75636244 14.41561981 37.0625 19.4375 C37.7534375 20.07558594 38.444375 20.71367188 39.15625 21.37109375 C53.64012358 35.19399691 63.55328573 53.53063842 72.0625 71.4375 C72.48402344 72.26636719 72.90554688 73.09523438 73.33984375 73.94921875 C78.89779129 85.29582109 80.17904953 98.67940829 80.30078125 111.1796875 C80.308853 111.98810089 80.31692474 112.79651428 80.32524109 113.62942505 C80.33897974 115.32861246 80.34974686 117.02782628 80.35766602 118.72705078 C80.36919856 120.44718646 80.38967061 122.16728599 80.41918945 123.88720703 C80.77487356 144.67585041 80.77487356 144.67585041 74.09765625 152.83984375 C73.44667969 153.34644531 72.79570312 153.85304687 72.125 154.375 C71.47660156 154.89964844 70.82820312 155.42429688 70.16015625 155.96484375 C69.46792969 156.45082031 68.77570313 156.93679687 68.0625 157.4375 C67.28648437 157.98792969 66.51046875 158.53835937 65.7109375 159.10546875 C60.00422967 161.97565661 52.67718417 161.21222123 46.6875 159.4375 C40.55319857 154.76374653 35.61806414 149.14461325 34.0625 141.4375 C33.48818012 135.72209092 34.02532337 130.46325397 35.52734375 124.93359375 C40.07388279 103.72747371 38.81920615 79.32840511 30.0625 59.4375 C29.56064483 57.96587637 29.07771041 56.48747706 28.625 55 C24.62398856 42.87385763 17.99262513 33.37256915 6.6875 27.125 C0.56352426 25.52110159 -4.26535753 25.68823338 -9.9375 28.6875 C-24.48973199 38.47840263 -32.04438717 58.53093822 -39.578125 73.7421875 C-40.97170787 76.55198813 -42.40091966 79.31322866 -43.97265625 82.02734375 C-45.42207802 84.54294057 -46.79361828 87.05046181 -48.12109375 89.62890625 C-48.49169922 90.34626953 -48.86230469 91.06363281 -49.24414062 91.80273438 C-49.99882211 93.26908441 -50.74882006 94.73785426 -51.49414062 96.20898438 C-54.79054949 102.55614252 -58.57457627 107.51932924 -64.125 112.125 C-66.61807244 114.19858797 -68.10777711 115.69291566 -69.9375 118.4375 C-70.5975 118.4375 -71.2575 118.4375 -71.9375 118.4375 C-71.9375 119.0975 -71.9375 119.7575 -71.9375 120.4375 C-73.05992302 121.55992302 -74.18662816 122.67823058 -75.328125 123.78125 C-88.15544602 136.98218231 -97.88683776 153.52456175 -104.9375 170.4375 C-105.2675 170.4375 -105.5975 170.4375 -105.9375 170.4375 C-109.79063416 138.15448406 -93.31715085 99.1872689 -77.9375 71.4375 C-77.38956787 70.43662354 -77.38956787 70.43662354 -76.83056641 69.41552734 C-61.9408347 42.45031766 -41.19753818 11.85880104 -11.03735352 1.01098633 C-7.36823292 0.00892096 -3.78435677 -0.05081839 0 0 Z " fill="#0465FA" transform="translate(243.9375,91.5625)"/>
<path d="M0 0 C2.8250555 10.73521089 4.67637598 20.88351475 5 32 C4.47269287 32.22026855 3.94538574 32.44053711 3.40209961 32.66748047 C-7.96881101 37.46757188 -18.3007125 42.69721332 -28.35546875 49.85400391 C-30.86485843 51.60267896 -33.46310944 53.20185612 -36.0625 54.8125 C-39.07076851 56.701621 -41.86992042 58.62032815 -44.5625 60.9375 C-47 63 -47 63 -49 63 C-49 63.66 -49 64.32 -49 65 C-50.49609375 66.4375 -50.49609375 66.4375 -52.4375 68 C-55.15188238 70.14525044 -55.15188238 70.14525044 -57 73 C-57.66 73 -58.32 73 -59 73 C-59.226875 73.70125 -59.45375 74.4025 -59.6875 75.125 C-60.96695304 77.92761142 -62.5090992 79.84253772 -64.51171875 82.15234375 C-70.32225314 89.36594681 -74.43243664 97.50032139 -78 106 C-78.66 106 -79.32 106 -80 106 C-80.12375 106.7425 -80.2475 107.485 -80.375 108.25 C-80.95486701 110.80141485 -81.73708739 112.7267573 -83 115 C-83.66 115 -84.32 115 -85 115 C-85.2475 115.598125 -85.495 116.19625 -85.75 116.8125 C-87.23091327 119.40409822 -88.42300536 120.49675313 -91 122 C-98.05810337 123.76452584 -104.66310069 124.00906412 -111.10546875 120.4765625 C-115.4457135 117.09385628 -118.27936882 112.16189353 -120 107 C-120.99044318 90.87688396 -118.40530716 78.74562121 -107.41015625 66.18359375 C-106 65 -106 65 -104 65 C-104 64.34 -104 63.68 -104 63 C-103.34 63 -102.68 63 -102 63 C-101.82210937 62.33226562 -101.64421875 61.66453125 -101.4609375 60.9765625 C-99.32871721 56.63230618 -96.07319861 53.71870774 -92.625 50.375 C-91.95210937 49.70726562 -91.27921875 49.03953125 -90.5859375 48.3515625 C-82.10075 40 -82.10075 40 -79 40 C-79 39.34 -79 38.68 -79 38 C-77.3658023 36.66131726 -75.6649573 35.40346254 -73.9375 34.1875 C-72.93460938 33.47722656 -71.93171875 32.76695312 -70.8984375 32.03515625 C-69.94195312 31.36355469 -68.98546875 30.69195312 -68 30 C-66.6868325 29.04258152 -65.37419848 28.08443011 -64.0625 27.125 C-61.71221077 25.49418706 -59.53316388 24.26658194 -57 23 C-56.54689453 22.52852539 -56.09378906 22.05705078 -55.62695312 21.57128906 C-53.89908638 19.90253901 -52.37731555 19.02145708 -50.21875 17.984375 C-49.46875732 17.6236792 -48.71876465 17.2629834 -47.94604492 16.89135742 C-47.1388501 16.51470947 -46.33165527 16.13806152 -45.5 15.75 C-44.65993408 15.35594971 -43.81986816 14.96189941 -42.9543457 14.5559082 C-11.36311313 0 -11.36311313 0 0 0 Z " fill="#0150D9" transform="translate(265,167)"/>
<path d="M0 0 C4.72270373 3.12648264 8.56505057 6.58634174 12.375 10.75 C13.179375 11.53375 13.98375 12.3175 14.8125 13.125 C24.11711833 22.65656024 32.30305878 32.85251518 38.375 44.75 C38.83156982 45.63461914 38.83156982 45.63461914 39.29736328 46.53710938 C58.13762063 83.11627698 58.13762063 83.11627698 57.375 98.75 C54.50335957 95.87835957 53.32661338 92.30630093 51.75 88.625 C38.58847037 57.15879741 38.58847037 57.15879741 16.875 31.8125 C14.375 29.75 14.375 29.75 12.125 26.9375 C5.51145492 18.8087774 -5.27109754 11.73449797 -15.625 9.75 C-24.34467748 8.86325314 -29.8991101 12.37370352 -36.5625 17.75 C-42.02594689 22.74452829 -46.29521666 28.78468298 -50.625 34.75 C-51.19347656 35.52472656 -51.76195312 36.29945313 -52.34765625 37.09765625 C-56.0898609 42.43653488 -58.92658689 48.1703502 -61.77734375 54.01953125 C-63.60689591 57.7558855 -65.57549842 61.40813862 -67.5625 65.0625 C-70.49794845 70.469606 -73.1363225 75.96497454 -75.6875 81.5625 C-78.71709942 88.15520392 -82.13855097 94.01669665 -86.625 99.75 C-87.03105469 100.34167969 -87.43710938 100.93335938 -87.85546875 101.54296875 C-91.16620968 106.11924888 -95.3884253 108.06477505 -100.625 109.75 C-103.62911262 110.20714757 -104.8160424 110.19632143 -107.4375 108.75 C-109.3061573 105.60278771 -108.94543191 102.29047035 -108.625 98.75 C-107.59375 95.25 -107.59375 95.25 -106.125 91.75 C-105.85655273 91.10973877 -105.58810547 90.46947754 -105.31152344 89.80981445 C-97.89386999 72.44921428 -88.97463737 54.85762841 -77.625 39.75 C-76.96242187 38.82316406 -76.29984375 37.89632812 -75.6171875 36.94140625 C-58.88865673 13.88721241 -30.30660334 -18.47457327 0 0 Z " fill="#3D8AF9" transform="translate(263.625,100.25)"/>
<path d="M0 0 C8.73287747 1.28189027 16.79693573 12.38918024 22 19 C33.62834688 35.26283296 40.47091586 59.04096417 38 79 C34.19316589 99.8289451 26.90602818 119.53206859 9.5625 132.75 C-0.60307958 139.63560997 -10.96008383 140.85380701 -23 140 C-29.6416491 138.62253777 -34.39558217 135.67048296 -38.58984375 130.3359375 C-42.2461155 124.2792879 -43.8618364 117.21446057 -42.703125 110.19921875 C-40.9076483 104.58336664 -37.55303662 100.28868996 -33.0625 96.5625 C-24.88545412 92.39053781 -16.19983933 91.38838673 -7.3828125 94.12109375 C-6.12783587 94.57421137 -4.87523755 95.03396568 -3.625 95.5 C4.23392659 98.39018713 12.38939827 99.98072565 20.51171875 97.11328125 C26.46157002 93.80292037 28.82547769 89.23820763 31.109375 82.94140625 C32.44316493 78.09149446 32.13619113 73.29342345 31.875 68.3125 C31.82424316 67.33369873 31.77348633 66.35489746 31.72119141 65.34643555 C30.70297471 49.58501694 24.32162315 38.12876205 13.50390625 26.77734375 C12 25 12 25 12 23 C11.401875 22.773125 10.80375 22.54625 10.1875 22.3125 C5.73470215 19.64082129 4.39685473 14.67681927 2.875 9.9375 C2.54242188 8.91527344 2.20984375 7.89304688 1.8671875 6.83984375 C1.17352571 4.56825761 0.54313812 2.31110811 0 0 Z " fill="#0365FB" transform="translate(326,179)"/>
<path d="M0 0 C0.8125 2.1875 0.8125 2.1875 1 5 C-3.22120286 10.76897725 -9.49233606 12.73117268 -15.98046875 15.078125 C-36.65215198 22.63172423 -58.39613426 36.57896546 -71 55 C-71.49628906 55.65871094 -71.99257812 56.31742188 -72.50390625 56.99609375 C-77.60035166 64.03530948 -80.65741309 72.03488244 -84 80 C-84.33 80.66 -84.66 81.32 -85 82 C-85.66 82 -86.32 82 -87 82 C-87.2475 82.598125 -87.495 83.19625 -87.75 83.8125 C-89.29537476 86.51690582 -90.20647365 87.56742238 -93 89 C-96.77113177 89.37644096 -100.55809338 89.72095331 -104 88 C-104 87.34 -104 86.68 -104 86 C-104.66 86 -105.32 86 -106 86 C-106.61630676 69.05156397 -98.15009231 56.20167288 -87 44 C-79.27400104 35.70619239 -71.43130307 28.34993077 -62 22 C-61.22785156 21.42121094 -60.45570313 20.84242188 -59.66015625 20.24609375 C-52.84127496 15.17447988 -45.4682119 11.56143922 -37.83886719 7.89599609 C-35.40709865 6.71110622 -33.01969892 5.4452835 -30.625 4.1875 C-20.94565834 -0.62785088 -10.44141865 -3.77668334 0 0 Z " fill="#6FAAFE" transform="translate(263,176)"/>
<path d="M0 0 C4.84301231 0.73132736 6.78650046 2.25091721 10 6 C10.33 6.99 10.66 7.98 11 9 C11.66 9 12.32 9 13 9 C14.6866343 11.53298497 16.2370825 14.05259976 17.75 16.6875 C18.19811035 17.4619043 18.6462207 18.23630859 19.10791016 19.03417969 C27.82212324 34.28641118 37.63528042 53.10649831 32.8125 71.0625 C30.8793372 76.93425617 28.3792747 81.24386868 23.375 84.9375 C17.28613665 86.85436439 11.43925216 87.17445474 5.625 84.375 C0.24102834 79.50378754 -3.74136087 75.15131885 -4.11767578 67.65625 C-4.16278716 59.36739858 -3.52540902 51.20638201 -2.77456665 42.96081543 C-1.47531326 28.65014423 -0.45880771 14.36542771 0 0 Z " fill="#3989FE" transform="translate(286,162)"/>
<path d="M0 0 C2.04937325 7.78273888 3.49155247 14.93489832 3 23 C-4.18463616 26.13135691 -11.36133302 28.26751883 -19 30 C-19 30.66 -19 31.32 -19 32 C-19.53367187 32.21914062 -20.06734375 32.43828125 -20.6171875 32.6640625 C-31.06573275 37.1110212 -40.14590553 43.16400892 -48.875 50.375 C-51 52 -51 52 -53 52 C-53 52.66 -53 53.32 -53 54 C-54.14576596 55.04755745 -55.3439356 56.03809717 -56.5625 57 C-60.76736758 60.53268626 -63.60388576 64.45397057 -66.5546875 69.05859375 C-67.03164062 69.69925781 -67.50859375 70.33992188 -68 71 C-68.66 71 -69.32 71 -70 71 C-70 71.66 -70 72.32 -70 73 C-70.66 73 -71.32 73 -72 73 C-72.25265625 73.69738281 -72.5053125 74.39476562 -72.765625 75.11328125 C-74.15486717 78.36217354 -75.86985491 81.19602884 -77.75 84.1875 C-78.4652178 85.33440224 -79.18005734 86.48154045 -79.89453125 87.62890625 C-80.58933594 88.74136719 -81.28414062 89.85382813 -82 91 C-83.15151318 92.87151714 -84.29803445 94.7461234 -85.4375 96.625 C-85.91058594 97.40101563 -86.38367188 98.17703125 -86.87109375 98.9765625 C-88.13466639 101.09390152 -88.13466639 101.09390152 -89 104 C-91.81211947 107.27496207 -94.88781116 110.53187304 -99.203125 111.48828125 C-102.35353806 111.50578354 -105.0177882 110.9940706 -108 110 C-109.1328125 108.2578125 -109.1328125 108.2578125 -110.125 106.125 C-110.62386719 105.07699219 -110.62386719 105.07699219 -111.1328125 104.0078125 C-115.40285191 94.12132485 -112.97657691 84.06241878 -109.37890625 74.4140625 C-107.78385231 70.46483546 -106.0548141 66.72910707 -104 63 C-103.34 63 -102.68 63 -102 63 C-101.82210937 62.33226562 -101.64421875 61.66453125 -101.4609375 60.9765625 C-99.32871721 56.63230618 -96.07319861 53.71870774 -92.625 50.375 C-91.95210937 49.70726562 -91.27921875 49.03953125 -90.5859375 48.3515625 C-82.10075 40 -82.10075 40 -79 40 C-79 39.34 -79 38.68 -79 38 C-77.3658023 36.66131726 -75.6649573 35.40346254 -73.9375 34.1875 C-72.93460938 33.47722656 -71.93171875 32.76695312 -70.8984375 32.03515625 C-69.94195312 31.36355469 -68.98546875 30.69195312 -68 30 C-66.6868325 29.04258152 -65.37419848 28.08443011 -64.0625 27.125 C-61.71221077 25.49418706 -59.53316388 24.26658194 -57 23 C-56.54689453 22.52852539 -56.09378906 22.05705078 -55.62695312 21.57128906 C-53.89908638 19.90253901 -52.37731555 19.02145708 -50.21875 17.984375 C-49.46875732 17.6236792 -48.71876465 17.2629834 -47.94604492 16.89135742 C-47.1388501 16.51470947 -46.33165527 16.13806152 -45.5 15.75 C-44.65993408 15.35594971 -43.81986816 14.96189941 -42.9543457 14.5559082 C-11.36311313 0 -11.36311313 0 0 0 Z M-14.8125 7.75 C-15.78832031 7.90984375 -16.76414062 8.0696875 -17.76953125 8.234375 C-34.15237103 12.11712784 -50.35142148 21.32039462 -64 31 C-65.59134766 32.11761719 -65.59134766 32.11761719 -67.21484375 33.2578125 C-83.84080061 45.47033354 -103.09809448 63.15321624 -107.6875 84.14453125 C-107.95499003 86.58872143 -108.10483272 88.91970232 -108.0625 91.375 C-108.041875 92.57125 -108.02125 93.7675 -108 95 C-107.34 95 -106.68 95 -106 95 C-106 95.66 -106 96.32 -106 97 C-102.51506092 98.74246954 -98.80161374 98.58584332 -95 98 C-92.41922056 96.59706107 -91.04029845 95.19724448 -89 93 C-89 92.34 -89 91.68 -89 91 C-88.34 91 -87.68 91 -87 91 C-86.54109375 89.99839844 -86.0821875 88.99679688 -85.609375 87.96484375 C-84.98974847 86.6223196 -84.36994744 85.27987599 -83.75 83.9375 C-83.44964844 83.28072266 -83.14929688 82.62394531 -82.83984375 81.94726562 C-80.77260753 77.48291506 -78.50043903 73.23794882 -76 69 C-75.4328125 68.03578125 -74.865625 67.0715625 -74.28125 66.078125 C-60.97388477 44.94976441 -36.29001223 29.44340477 -12.72070312 22.07666016 C-8.41994616 20.69691971 -5.26925766 19.13972103 -2 16 C-0.85231087 13.51749828 -0.85231087 13.51749828 -1 11 C-2.49152568 8.67984895 -3.60581848 8.1093051 -6.25390625 7.375 C-9.33375461 6.95442327 -11.75307947 7.22071624 -14.8125 7.75 Z " fill="#0465FA" transform="translate(265,167)"/>
<path d="M0 0 C6.84888281 4.48969287 13.04199752 9.43498382 18 16 C18 16.66 18 17.32 18 18 C15.00731476 17.4088724 13.10409594 16.55577045 10.71484375 14.671875 C10.10721191 14.20370361 9.49958008 13.73553223 8.87353516 13.25317383 C8.23464355 12.75712646 7.59575195 12.2610791 6.9375 11.75 C-4.67944674 2.96804263 -4.67944674 2.96804263 -18.69140625 0.58984375 C-34.99131827 3.48576721 -44.90845417 15.08290032 -54 28 C-57.42381693 33.42774484 -60.2972353 39.15163924 -63.1875 44.875 C-63.92227331 46.30158314 -64.65860194 47.72736628 -65.39648438 49.15234375 C-66.86352946 51.98995373 -68.32376295 54.83089936 -69.77856445 57.67480469 C-72.09537454 62.19497532 -74.44047183 66.6997672 -76.8046875 71.1953125 C-77.34798958 72.23677933 -77.34798958 72.23677933 -77.90226746 73.29928589 C-85.53683115 87.76841557 -85.53683115 87.76841557 -90 90 C-93.0625 90.125 -93.0625 90.125 -96 90 C-97 89 -97 89 -97.4375 85.6875 C-97.28644946 75.34168253 -88.59037755 64.73205384 -83.3125 56.25 C-82.96273102 55.68584381 -82.61296204 55.12168762 -82.25259399 54.54043579 C-50.46705828 3.30465669 -50.46705828 3.30465669 -26.84765625 -4.3359375 C-16.98613673 -6.63560598 -8.74219913 -4.95612047 0 0 Z " fill="#BEDBFD" transform="translate(263,103)"/>
<path d="M0 0 C1.18903931 0.01135986 1.18903931 0.01135986 2.40209961 0.02294922 C8.40066834 0.19216654 12.97180271 1.12957727 18.0625 4.4375 C19.14144531 5.07365234 19.14144531 5.07365234 20.2421875 5.72265625 C26.46626395 9.58847536 31.75636244 14.41561981 37.0625 19.4375 C37.7534375 20.07558594 38.444375 20.71367188 39.15625 21.37109375 C55.77406442 37.23055553 67.36370422 59.41541019 76.0625 80.4375 C76.0625 81.0975 76.0625 81.7575 76.0625 82.4375 C75.4025 82.4375 74.7425 82.4375 74.0625 82.4375 C73.629375 81.4784375 73.629375 81.4784375 73.1875 80.5 C72.23426549 78.28543921 72.23426549 78.28543921 70.0625 77.4375 C69.7325 78.0975 69.4025 78.7575 69.0625 79.4375 C68.794375 78.756875 68.52625 78.07625 68.25 77.375 C56.77523603 48.99005754 40.07463631 21.02927527 12.75 5.5625 C4.70574952 2.19513934 -2.56637885 3.12137246 -10.62109375 5.984375 C-31.17041613 14.98831838 -46.9460019 32.99072464 -58.9375 51.4375 C-59.66453125 52.51386719 -60.3915625 53.59023437 -61.140625 54.69921875 C-70.56191423 68.7764856 -77.97949039 84.02389593 -84.9375 99.4375 C-85.9275 99.1075 -86.9175 98.7775 -87.9375 98.4375 C-88.2675 100.4175 -88.5975 102.3975 -88.9375 104.4375 C-89.5975 104.4375 -90.2575 104.4375 -90.9375 104.4375 C-91.2675 105.4275 -91.5975 106.4175 -91.9375 107.4375 C-92.9375 105.4375 -92.9375 105.4375 -92.29174805 103.20117188 C-91.08246609 100.10757192 -89.8695992 97.01711974 -88.625 93.9375 C-88.16931641 92.80779785 -87.71363281 91.6780957 -87.24414062 90.51416016 C-73.299163 56.6923145 -47.99365385 16.29753538 -13.0703125 1.7421875 C-8.70330092 0.17148981 -4.61081881 -0.06191657 0 0 Z " fill="#0B63EA" transform="translate(243.9375,91.5625)"/>
<path d="M0 0 C0.8125 2.1875 0.8125 2.1875 1 5 C-3.22120286 10.76897725 -9.49233606 12.73117268 -15.98046875 15.078125 C-36.65215198 22.63172423 -58.39613426 36.57896546 -71 55 C-71.49628906 55.65871094 -71.99257812 56.31742188 -72.50390625 56.99609375 C-77.60035166 64.03530948 -80.65741309 72.03488244 -84 80 C-84.33 80.66 -84.66 81.32 -85 82 C-85.66 82 -86.32 82 -87 82 C-87.2475 82.598125 -87.495 83.19625 -87.75 83.8125 C-89.29537476 86.51690582 -90.20647365 87.56742238 -93 89 C-96.77113177 89.37644096 -100.55809338 89.72095331 -104 88 C-104 87.34 -104 86.68 -104 86 C-104.66 86 -105.32 86 -106 86 C-106.61630676 69.05156397 -98.15009231 56.20167288 -87 44 C-79.27400104 35.70619239 -71.43130307 28.34993077 -62 22 C-61.22785156 21.42121094 -60.45570313 20.84242188 -59.66015625 20.24609375 C-52.84127496 15.17447988 -45.4682119 11.56143922 -37.83886719 7.89599609 C-35.40709865 6.71110622 -33.01969892 5.4452835 -30.625 4.1875 C-20.94565834 -0.62785088 -10.44141865 -3.77668334 0 0 Z M-43 13 C-43.92296875 13.47179687 -44.8459375 13.94359375 -45.796875 14.4296875 C-52.67927685 18.02642293 -58.84667176 22.27480811 -65 27 C-65.96164063 27.7321875 -66.92328125 28.464375 -67.9140625 29.21875 C-71.5412627 32.00986747 -71.5412627 32.00986747 -75 35 C-75 35.66 -75 36.32 -75 37 C-75.58136719 37.25652344 -76.16273438 37.51304687 -76.76171875 37.77734375 C-80.88383248 40.02903938 -83.83397606 43.58308359 -87 47 C-87.87011719 47.92039062 -87.87011719 47.92039062 -88.7578125 48.859375 C-93.12199085 53.93400099 -96.02634044 59.64326705 -98.9375 65.625 C-99.33960693 66.43686768 -99.74171387 67.24873535 -100.15600586 68.08520508 C-102.40084095 72.87252486 -103.67356991 76.59755272 -103 82 C-101.0797921 84.2920986 -101.0797921 84.2920986 -97.8125 84.625 C-93.0463421 83.84366264 -91.75122635 82.49790181 -88.8203125 78.8046875 C-85.74247935 74.06244672 -83.35243503 68.99895698 -80.90625 63.91015625 C-67.86016739 36.83693601 -42.11403614 18.52166588 -14.26757812 8.49780273 C-12.86790066 8.00928723 -11.46299326 7.53544056 -10.05273438 7.07836914 C-6.20732691 5.7759707 -6.20732691 5.7759707 -3.5546875 2.828125 C-3.28011719 1.92320312 -3.28011719 1.92320312 -3 1 C-17.70705555 -0.50413068 -30.33656466 6.24380964 -43 13 Z " fill="#3A89FC" transform="translate(263,176)"/>
<path d="M0 0 C1 2 1 2 0.484375 3.83984375 C-0.11807147 6.52656068 0.35749939 7.97687323 1.25 10.5625 C1.50265625 11.32691406 1.7553125 12.09132813 2.015625 12.87890625 C3.05827428 15.12556721 4.24130601 16.2933104 6 18 C6.33 18.99 6.66 19.98 7 21 C14.74632886 26.36142093 23.87536062 26.77840526 33 26 C40.75105438 24.37192465 46.83241605 21.93406716 53 17 C53.66 17 54.32 17 55 17 C55 16.34 55 15.68 55 15 C56.64453125 13.44921875 56.64453125 13.44921875 58.8125 11.6875 C61.98044667 9.01593934 63.96911886 6.63420836 66 3 C66.99 2.67 67.98 2.34 69 2 C65.21711739 14.52391234 56.26837646 25.35758861 45 32 C34.91833316 37.15401276 24.23336467 38.70758026 13.04296875 36.38671875 C6.78506538 34.20462341 2.42976666 30.68144173 -1 25 C-3.7939227 18.44539934 -4.88014952 11.94958973 -3 5 C-1.4375 1.9375 -1.4375 1.9375 0 0 Z " fill="#033AB0" transform="translate(287,282)"/>
<path d="M0 0 C2.39404297 -0.10327148 2.39404297 -0.10327148 5 0 C11.96183622 6.78538415 14.14855457 16.1605379 14.4375 25.5 C14.32931832 31.81908292 13.27976939 36.5971656 10 42 C9.34 42 8.68 42 8 42 C7.67 42.99 7.34 43.98 7 45 C2.5729039 47.34375676 -0.90632415 48.69459216 -6 48 C-7.875 47 -7.875 47 -9 45 C-9.75081215 40.64528951 -9.9090733 38.39021133 -7.46484375 34.65234375 C-6.22519661 33.12760322 -4.94744739 31.6328358 -3.62890625 30.17578125 C-0.79919955 26.39605312 -0.86352282 22.08151206 -0.68359375 17.48046875 C-0.64169922 16.45888672 -0.59980469 15.43730469 -0.55664062 14.38476562 C-0.51732422 13.32966797 -0.47800781 12.27457031 -0.4375 11.1875 C-0.39431641 10.11306641 -0.35113281 9.03863281 -0.30664062 7.93164062 C-0.20089017 5.28787918 -0.09879767 2.6440289 0 0 Z " fill="#7DB3FD" transform="translate(302,196)"/>
<path d="M0 0 C3.3825 -0.04125 6.765 -0.0825 10.25 -0.125 C11.30993164 -0.14320801 12.36986328 -0.16141602 13.46191406 -0.18017578 C14.30463867 -0.1851709 15.14736328 -0.19016602 16.015625 -0.1953125 C16.87446289 -0.20578613 17.73330078 -0.21625977 18.61816406 -0.22705078 C21.23688009 0.02258082 22.80349025 0.56447147 25 2 C26.375 4.75 26.375 4.75 27 8 C26.4740625 9.546875 26.4740625 9.546875 25.9375 11.125 C25.628125 12.07375 25.31875 13.0225 25 14 C25.99307821 15.33849671 26.99357052 16.67151309 28 18 C28 21.5625 28 21.5625 27 25 C22.38286556 29.2380434 16.55065694 28.33267641 10.6875 28.1875 C7.160625 28.125625 3.63375 28.06375 0 28 C0 18.76 0 9.52 0 0 Z M9 6 C9 7.65 9 9.3 9 11 C12.41642759 11.25015873 12.41642759 11.25015873 16 11 C16.66 10.01 17.32 9.02 18 8 C16.04366025 5.58878141 16.04366025 5.58878141 12.375 5.875 C10.704375 5.936875 10.704375 5.936875 9 6 Z M9 17 C9 18.65 9 20.3 9 22 C11.97 22 14.94 22 18 22 C18.33 20.68 18.66 19.36 19 18 C17.99163938 16.76732652 17.99163938 16.76732652 15.93359375 16.90234375 C14.69802734 16.91974609 14.69802734 16.91974609 13.4375 16.9375 C12.19806641 16.95103516 12.19806641 16.95103516 10.93359375 16.96484375 C9.97646484 16.98224609 9.97646484 16.98224609 9 17 Z " fill="#C7DCF9" transform="translate(225,333)"/>
<path d="M0 0 C8.73287747 1.28189027 16.79693573 12.38918024 22 19 C32.54458858 33.74714199 36.36234505 49.71597827 36.125 67.5625 C36.11597656 68.85736328 36.10695313 70.15222656 36.09765625 71.48632812 C36.07425094 74.65774771 36.04146228 77.82877373 36 81 C35.34 81 34.68 81 34 81 C33.896875 82.0725 33.79375 83.145 33.6875 84.25 C33.02797801 87.84739269 32.54223809 89.45776191 30 92 C29.34 92 28.68 92 28 92 C28.433125 90.7315625 28.433125 90.7315625 28.875 89.4375 C29.24625 88.303125 29.6175 87.16875 30 86 C30.35578125 84.99453125 30.7115625 83.9890625 31.078125 82.953125 C32.44593955 78.09655008 32.13694316 73.30776462 31.875 68.3125 C31.82424316 67.33369873 31.77348633 66.35489746 31.72119141 65.34643555 C30.70297471 49.58501694 24.32162315 38.12876205 13.50390625 26.77734375 C12 25 12 25 12 23 C11.401875 22.773125 10.80375 22.54625 10.1875 22.3125 C5.73470215 19.64082129 4.39685473 14.67681927 2.875 9.9375 C2.37613281 8.40416016 2.37613281 8.40416016 1.8671875 6.83984375 C1.17352571 4.56825761 0.54313812 2.31110811 0 0 Z " fill="#1167EA" transform="translate(326,179)"/>
<path d="M0 0 C4.516875 -0.1546875 4.516875 -0.1546875 9.125 -0.3125 C10.06230957 -0.35802002 10.99961914 -0.40354004 11.96533203 -0.45043945 C16.18739307 -0.52013269 19.1457019 -0.38974521 22.546875 2.2734375 C25.42196994 5.4690048 25.99082327 6.89801368 26.26171875 11.015625 C25.84143314 14.20226813 23.7928868 16.39742238 22 19 C22.50560887 21.6807393 22.50560887 21.6807393 24 24 C24.67246581 25.33041796 25.34011002 26.66329979 26 28 C22.60075333 28.35030405 19.38467927 28.5391997 16 28 C13.625 25.0625 13.625 25.0625 12 22 C9.87880872 21.04768403 9.87880872 21.04768403 8 21 C8 23.31 8 25.62 8 28 C5.36 28 2.72 28 0 28 C0 18.76 0 9.52 0 0 Z M8 7 C8 9.31 8 11.62 8 14 C11.41656024 14.16677282 11.41656024 14.16677282 15 14 C15.66 13.34 16.32 12.68 17 12 C16.59471099 9.21762345 16.59471099 9.21762345 15 7 C12.66702567 6.95907063 10.33294775 6.95758277 8 7 Z " fill="#C6DBF9" transform="translate(270,333)"/>
<path d="M0 0 C3.50180622 0.46304876 6.00072997 1.43365027 9.18359375 2.9375 C16.53897389 6.32116767 24.35261542 7.10094904 32.125 4.4921875 C34.52941128 3.42705396 34.52941128 3.42705396 36.63671875 2.21484375 C37.1884375 1.95832031 37.74015625 1.70179688 38.30859375 1.4375 C38.96859375 1.7675 39.62859375 2.0975 40.30859375 2.4375 C30.30781751 12.98543117 21.286719 18.11742266 6.55859375 18.8125 C0.21248698 18.75717902 -4.52247337 17.10804572 -9.69140625 13.4375 C-12.15207217 10.62531038 -12.74256883 9.51191416 -12.56640625 5.8125 C-10.2397465 -0.50271932 -6.06884614 -0.11656847 0 0 Z " fill="#3688FD" transform="translate(309.69140625,276.5625)"/>
<path d="M0 0 C6.06196942 12.12393884 0.6246533 27.78163865 -3 40 C-3.34289062 41.17175781 -3.68578125 42.34351563 -4.0390625 43.55078125 C-4.51472656 44.76314453 -4.51472656 44.76314453 -5 46 C-6.32303717 46.3721042 -7.65737935 46.70630173 -9 47 C-9.268125 47.70125 -9.53625 48.4025 -9.8125 49.125 C-11.5301649 53.28355712 -14.53677404 56.16570895 -18 59 C-18.66 59 -19.32 59 -20 59 C-20 59.66 -20 60.32 -20 61 C-30.22830708 69.21034321 -41.06319539 72.03277012 -54 71 C-59.70822647 70.21097894 -64.16932685 68.01917072 -69 65 C-69 64.01 -69 63.02 -69 62 C-69.99 61.67 -70.98 61.34 -72 61 C-74.36042332 57.09622296 -75.91024444 53.57753367 -76 49 C-75.00533703 45.80856801 -73.82206981 42.81001026 -72 40 C-70.515 39.505 -70.515 39.505 -69 39 C-69 39.66 -69 40.32 -69 41 C-69.66 41 -70.32 41 -71 41 C-70.67 45.95 -70.34 50.9 -70 56 C-69.34 56 -68.68 56 -68 56 C-68 56.66 -68 57.32 -68 58 C-67.34 58 -66.68 58 -66 58 C-66 58.66 -66 59.32 -66 60 C-54.46170054 65.91048747 -43.68116399 65.71947986 -31 64 C-31 63.34 -31 62.68 -31 62 C-28.525 61.505 -28.525 61.505 -26 61 C-25.67 60.01 -25.34 59.02 -25 58 C-24.113125 57.443125 -23.22625 56.88625 -22.3125 56.3125 C-18.1438304 53.67599058 -15.70919456 50.05323654 -13 46 C-12.24009766 44.88625 -12.24009766 44.88625 -11.46484375 43.75 C-7.05153603 36.88736293 -4.51364038 29.71887799 -2 22 C-1.34 22 -0.68 22 0 22 C0 14.74 0 7.48 0 0 Z " fill="#0250D9" transform="translate(362,238)"/>
<path d="M0 0 C7.66502548 6.94642934 13.3258486 15.84137291 18 25 C18.30437988 25.58974609 18.60875977 26.17949219 18.92236328 26.78710938 C37.76262063 63.36627698 37.76262063 63.36627698 37 79 C34.12835957 76.12835957 32.95161338 72.55630093 31.375 68.875 C18.16881043 37.29787314 18.16881043 37.29787314 -3.6875 11.9375 C-5.95481664 10.03785633 -6.93247248 8.71734277 -8 6 C-5.525 6.495 -5.525 6.495 -3 7 C-2.67 7.99 -2.34 8.98 -2 10 C-1.34 9.34 -0.68 8.68 0 8 C-0.29259485 5.99363529 -0.62633887 3.99285937 -1 2 C-0.67 1.34 -0.34 0.68 0 0 Z " fill="#3588FE" transform="translate(284,120)"/>
<path d="M0 0 C1.23556641 0.01740234 1.23556641 0.01740234 2.49609375 0.03515625 C3.32238281 0.04417969 4.14867187 0.05320312 5 0.0625 C5.63808594 0.07410156 6.27617187 0.08570313 6.93359375 0.09765625 C8.64493196 3.92351363 10.35386662 7.7504324 12.06054688 11.57836914 C12.64191202 12.88140091 13.22394189 14.18413631 13.80664062 15.48657227 C14.64236107 17.35486227 15.47571294 19.22419269 16.30859375 21.09375 C17.06269531 22.78262329 17.06269531 22.78262329 17.83203125 24.50561523 C18.93359375 27.09765625 18.93359375 27.09765625 18.93359375 28.09765625 C15.96359375 28.09765625 12.99359375 28.09765625 9.93359375 28.09765625 C9.27359375 26.44765625 8.61359375 24.79765625 7.93359375 23.09765625 C3.97359375 23.09765625 0.01359375 23.09765625 -4.06640625 23.09765625 C-4.39640625 24.74765625 -4.72640625 26.39765625 -5.06640625 28.09765625 C-8.03640625 28.09765625 -11.00640625 28.09765625 -14.06640625 28.09765625 C-12.04354401 21.73645423 -9.68950375 15.67769614 -6.94140625 9.59765625 C-6.58175781 8.788125 -6.22210938 7.97859375 -5.8515625 7.14453125 C-2.70824572 0.12798893 -2.70824572 0.12798893 0 0 Z M1.93359375 10.09765625 C0.94359375 12.07765625 -0.04640625 14.05765625 -1.06640625 16.09765625 C0.91359375 16.09765625 2.89359375 16.09765625 4.93359375 16.09765625 C4.27359375 14.11765625 3.61359375 12.13765625 2.93359375 10.09765625 C2.60359375 10.09765625 2.27359375 10.09765625 1.93359375 10.09765625 Z " fill="#C7DCF8" transform="translate(205.06640625,332.90234375)"/>
<path d="M0 0 C0.99 4.95 1.98 9.9 3 15 C2.34 15 1.68 15 1 15 C0.505 12.525 0.505 12.525 0 10 C-0.66 10.33 -1.32 10.66 -2 11 C-2 10.34 -2 9.68 -2 9 C-19.81313131 4.95156107 -41.11228069 17.31097279 -55.80737305 26.40917969 C-61.63157203 30.16260837 -67.02916547 34.34810402 -72.43041992 38.66943359 C-76.78579675 42.058078 -80.66525358 43.73412797 -86 45 C-84.37660195 43.29115995 -82.70680947 41.62553283 -81 40 C-80.34 40 -79.68 40 -79 40 C-79 39.34 -79 38.68 -79 38 C-77.3658023 36.66131726 -75.6649573 35.40346254 -73.9375 34.1875 C-72.93460938 33.47722656 -71.93171875 32.76695312 -70.8984375 32.03515625 C-69.94195312 31.36355469 -68.98546875 30.69195312 -68 30 C-66.6868325 29.04258152 -65.37419848 28.08443011 -64.0625 27.125 C-61.71221077 25.49418706 -59.53316388 24.26658194 -57 23 C-56.54689453 22.52852539 -56.09378906 22.05705078 -55.62695312 21.57128906 C-53.89908638 19.90253901 -52.37731555 19.02145708 -50.21875 17.984375 C-49.46875732 17.6236792 -48.71876465 17.2629834 -47.94604492 16.89135742 C-47.1388501 16.51470947 -46.33165527 16.13806152 -45.5 15.75 C-44.23990112 15.15892456 -44.23990112 15.15892456 -42.9543457 14.5559082 C-11.36311313 0 -11.36311313 0 0 0 Z " fill="#0A61EE" transform="translate(265,167)"/>
<path d="M0 0 C0 0.99 0 1.98 0 3 C-3.33333333 6 -3.33333333 6 -6 6 C-6.33 6.99 -6.66 7.98 -7 9 C-13.41837469 13.03014224 -20.63577999 12.88974395 -28 12 C-31.12425796 10.88502318 -34.04088886 9.53968783 -37.0390625 8.125 C-41.90042868 6.27793739 -46.89373416 6.07718087 -52 7 C-54.30351277 8.4234594 -54.30351277 8.4234594 -56 10 C-55.67 8.35 -55.34 6.7 -55 5 C-56.65 5.33 -58.3 5.66 -60 6 C-57.36962847 2.59598979 -54.08715848 1.67026485 -50 1 C-42.96829147 0.19637617 -37.22988062 1.03798705 -30.625 3.5 C-22.82626068 6.36805275 -14.33773533 8.23866213 -6.3828125 4.90234375 C-4.02460841 3.46308396 -1.95248118 1.95248118 0 0 Z " fill="#0B63EA" transform="translate(353,271)"/>
<path d="M0 0 C5.2779327 0.05032594 8.87922268 0.45262744 13.375 3.25 C14.0625 5.3125 14.0625 5.3125 14.375 7.25 C16.3587767 8.53436734 16.3587767 8.53436734 18.375 9.25 C18.375 10.24 18.375 11.23 18.375 12.25 C12.00611938 15.14075775 5.4641054 15.35325193 -1.125 13 C-3.69178578 11.20324996 -5.19282351 10.03478761 -6.625 7.25 C-6.875 4.0625 -6.875 4.0625 -6.625 1.25 C-4.85641286 -0.51858714 -2.39615486 0.03567476 0 0 Z " fill="#3C8AFB" transform="translate(306.625,276.75)"/>
<path d="M0 0 C2.97 0 5.94 0 9 0 C9 9.24 9 18.48 9 28 C6.03 28 3.06 28 0 28 C0 18.76 0 9.52 0 0 Z " fill="#C6DAF8" transform="translate(256,333)"/>
<path d="M0 0 C2.375 0.25 2.375 0.25 5 1 C6.3125 3.0625 6.3125 3.0625 7 5 C7.66 3.35 8.32 1.7 9 0 C10.32 1.32 11.64 2.64 13 4 C13.66 2.68 14.32 1.36 15 0 C16.32 0 17.64 0 19 0 C17.43551329 5.6143991 15.83604813 10.86810338 13 16 C11 15 11 15 10 12 C8.68 13.32 7.36 14.64 6 16 C4.9955866 13.7101766 3.99632388 11.4183401 3 9.125 C2.71382813 8.47402344 2.42765625 7.82304687 2.1328125 7.15234375 C0 2.2265625 0 2.2265625 0 0 Z " fill="#FBFBFB" transform="translate(268,386)"/>
<path d="M0 0 C16.07892642 10.50428431 28.37503439 28.49425706 32.74609375 47.19140625 C33.22739525 49.79043435 33.65442843 52.37984544 34 55 C31.3321085 52.3321085 30.94783016 49.86611284 29.875 46.25 C25.45749543 32.34023961 17.87357717 19.20111729 5.5625 10.875 C2.49590427 8.7533791 1.40799488 7.25697951 0.5 3.625 C0.335 2.42875 0.17 1.2325 0 0 Z " fill="#ACDFFE" transform="translate(327,181)"/>
<path d="M0 0 C3.36344489 2.48602449 4.80057749 3.91425523 5.5625 8.0625 C4.86895034 11.68437046 3.96102497 12.83925205 1 15 C-2.19842721 16.23016431 -3.48647593 16.20302115 -6.6875 14.9375 C-9.63663577 12.46660246 -10.32181966 10.76766854 -11 7 C-9.4844968 0.9379872 -6.0807083 -0.85129916 0 0 Z M-5 4 C-6.35618499 5.12534105 -6.35618499 5.12534105 -6.0625 8.0625 C-6.041875 9.031875 -6.02125 10.00125 -6 11 C-4.15274948 11.69159401 -4.15274948 11.69159401 -2 12 C-1.01 11.34 -0.02 10.68 1 10 C0.67 8.35 0.34 6.7 0 5 C-1.65614657 4.61781233 -3.32457024 4.28604898 -5 4 Z " fill="#FAFAFA" transform="translate(251,386)"/>
<path d="M0 0 C2.3125 1.0625 2.3125 1.0625 4 3 C5 6.375 5 6.375 5 10 C3.07080563 13.54971764 1.86590284 14.72940536 -2 15.9375 C-5.1469366 16.00306118 -6.50130318 15.87402261 -9 14 C-11.0815902 11.32366974 -10.99587591 9.88246332 -10.875 6.4375 C-10 3 -10 3 -8.3125 1.0625 C-5.2941394 -0.32431433 -3.29029921 -0.4112874 0 0 Z M-5 4 C-5.66 4.66 -6.32 5.32 -7 6 C-6.67958603 8.60280568 -6.67958603 8.60280568 -6 11 C-4.16299211 11.77242269 -4.16299211 11.77242269 -2 12 C-0.08333333 10.91666667 -0.08333333 10.91666667 1 9 C0.77242269 6.83700789 0.77242269 6.83700789 0 5 C-2.39719432 4.32041397 -2.39719432 4.32041397 -5 4 Z " fill="#FBFBFB" transform="translate(198,386)"/>
<path d="M0 0 C8.00352205 4.00176103 14.70286757 10.06683243 19 18 C19.84153291 20.66001781 20.43323085 23.26061575 21 26 C20.01 26 19.02 26 18 26 C16.02734375 23.953125 16.02734375 23.953125 13.9375 21.25 C12.89916016 19.92742187 12.89916016 19.92742187 11.83984375 18.578125 C10 16 10 16 8.875 13.73046875 C8.12904408 11.82063227 8.12904408 11.82063227 6.0625 11.0625 C3.20304368 9.58944674 2.3961792 7.85884312 1 5 C0.3125 2.1875 0.3125 2.1875 0 0 Z " fill="#0966F4" transform="translate(330,190)"/>
<path d="M0 0 C0.99 0.495 0.99 0.495 2 1 C2 1.99 2 2.98 2 4 C2.66 4 3.32 4 4 4 C4.79953138 7.28696233 5.09658936 8.71023192 4 12 C4.55482661 14.52008086 5.17482404 16.9585299 5.875 19.4375 C7.71381451 26.28700601 8.73076789 32.89227236 9 40 C7.02 40.495 7.02 40.495 5 41 C4.80664062 39.72125 4.61328125 38.4425 4.4140625 37.125 C4.15123735 35.41663655 3.88820549 33.70830489 3.625 32 C3.49867188 31.16082031 3.37234375 30.32164062 3.2421875 29.45703125 C2.61938128 25.4399311 1.92227305 21.50037817 0.90625 17.5625 C0.12737265 14.50070628 -0.19540711 12.1265137 0 9 C0.66 9 1.32 9 2 9 C1.34 6.03 0.68 3.06 0 0 Z " fill="#0032AA" transform="translate(265,158)"/>
<path d="M0 0 C8.73287747 1.28189027 16.79693573 12.38918024 22 19 C29.85960318 29.99205372 36.70128061 45.32502819 36 59 C35.67 59 35.34 59 35 59 C34.8040625 58.04222656 34.608125 57.08445313 34.40625 56.09765625 C31.25873098 41.72124907 25.96267003 28.05793185 16 17 C15.27683594 16.14792969 14.55367188 15.29585937 13.80859375 14.41796875 C9.53982705 9.48469015 5.37540635 5.65985113 0 2 C0 1.34 0 0.68 0 0 Z " fill="#2464C6" transform="translate(326,179)"/>
<path d="M0 0 C7 0 7 0 9.4375 2 C10.2109375 2.99 10.2109375 2.99 11 4 C10.62875 4.886875 10.2575 5.77375 9.875 6.6875 C8.89215772 10.40826005 9.23937836 11.67438135 11 15 C8.5625 14.625 8.5625 14.625 6 14 C5.67 13.34 5.34 12.68 5 12 C4.67 12.99 4.34 13.98 4 15 C2.68 15 1.36 15 0 15 C0 10.05 0 5.1 0 0 Z M4 4 C4 4.66 4 5.32 4 6 C4.99 5.67 5.98 5.34 7 5 C6.01 4.67 5.02 4.34 4 4 Z " fill="#FBFBFB" transform="translate(325,386)"/>
<path d="M0 0 C7 0 7 0 10 2 C10.25660094 5.07921132 10.39431504 7.21136993 9 10 C9.89363605 12.60931266 9.89363605 12.60931266 11 15 C9.35 15 7.7 15 6 15 C5.34 13.68 4.68 12.36 4 11 C3.67 12.32 3.34 13.64 3 15 C2.01 15 1.02 15 0 15 C0 10.05 0 5.1 0 0 Z M3 4 C3 4.66 3 5.32 3 6 C3.99 6 4.98 6 6 6 C6 5.34 6 4.68 6 4 C5.01 4 4.02 4 3 4 Z " fill="#FCFCFC" transform="translate(217,386)"/>
<path d="M0 0 C2.89951766 0.32216863 4.72557388 0.80628745 7.125 2.5 C11.52336998 4.79480173 16.1036861 4.75132556 21 5 C21 5.99 21 6.98 21 8 C14.83274215 10.80431471 8.28033024 11.18091889 1.875 8.875 C-0.62860292 6.37139708 -0.84859001 4.48242986 -1 1 C-0.67 0.67 -0.34 0.34 0 0 Z " fill="#76B0FE" transform="translate(304,281)"/>
<path d="M0 0 C6.06196942 12.12393884 0.6246533 27.78163865 -3 40 C-3.34289062 41.17175781 -3.68578125 42.34351563 -4.0390625 43.55078125 C-4.35617187 44.35902344 -4.67328125 45.16726563 -5 46 C-6.32303717 46.3721042 -7.65737935 46.70630173 -9 47 C-9.71727778 48.64551962 -10.38325228 50.31422289 -11 52 C-11.99 52.66 -12.98 53.32 -14 54 C-14 49.70603203 -13.79230361 48.99175387 -11 46 C-8.8125 44.75 -8.8125 44.75 -7 44 C-7 43.01 -7 42.02 -7 41 C-6.34 41 -5.68 41 -5 41 C-5.2475 39.906875 -5.495 38.81375 -5.75 37.6875 C-6.52088821 31.96237022 -4.21875784 27.18027581 -2 22 C-1.34 22 -0.68 22 0 22 C0 14.74 0 7.48 0 0 Z " fill="#0949C6" transform="translate(362,238)"/>
<path d="M0 0 C0.66 0 1.32 0 2 0 C3.00218061 2.3115773 4.00183658 4.62418884 5 6.9375 C5.28617187 7.59685547 5.57234375 8.25621094 5.8671875 8.93554688 C8 13.88671875 8 13.88671875 8 15 C3.71 15 -0.58 15 -5 15 C-1.85714286 4.28571429 -1.85714286 4.28571429 0 0 Z " fill="#FAFAFA" transform="translate(304,386)"/>
<path d="M0 0 C0.763125 0.20625 1.52625 0.4125 2.3125 0.625 C2.3125 1.615 2.3125 2.605 2.3125 3.625 C0.9925 3.625 -0.3275 3.625 -1.6875 3.625 C-1.6875 4.285 -1.6875 4.945 -1.6875 5.625 C0.7875 6.615 0.7875 6.615 3.3125 7.625 C3.5625 9.9375 3.5625 9.9375 3.3125 12.625 C1.625 14.5 1.625 14.5 -0.6875 15.625 C-3.4375 15.3125 -3.4375 15.3125 -5.6875 14.625 C-5.6875 13.305 -5.6875 11.985 -5.6875 10.625 C-3.2125 11.12 -3.2125 11.12 -0.6875 11.625 C-1.925 10.5421875 -1.925 10.5421875 -3.1875 9.4375 C-5.6875 6.625 -5.6875 6.625 -6.1875 3.9375 C-5.38907257 0.24477312 -3.60301403 -0.50274614 0 0 Z " fill="#FAFAFA" transform="translate(170.6875,386.375)"/>
<path d="M0 0 C2.98683456 1.04162718 3.8550651 1.70207827 5.265625 4.6015625 C5.59046875 5.59929687 5.9153125 6.59703125 6.25 7.625 C6.58515625 8.62789062 6.9203125 9.63078125 7.265625 10.6640625 C7.50796875 11.43492187 7.7503125 12.20578125 8 13 C10.31 13.33 12.62 13.66 15 14 C15 14.99 15 15.98 15 17 C14.34 17 13.68 17 13 17 C12.67 17.99 12.34 18.98 12 20 C9.36 17.69 6.72 15.38 4 13 C4.33 15.31 4.66 17.62 5 20 C3.68 20.33 2.36 20.66 1 21 C1.0721875 20.39671875 1.144375 19.7934375 1.21875 19.171875 C1.3115625 18.37265625 1.404375 17.5734375 1.5 16.75 C1.5928125 15.96109375 1.685625 15.1721875 1.78125 14.359375 C2.19529158 9.89364079 1.67099786 7.07305729 0 3 C0 2.01 0 1.02 0 0 Z " fill="#04329E" transform="translate(327,195)"/>
<path d="M0 0 C0.96035156 0.15339844 1.92070312 0.30679687 2.91015625 0.46484375 C7.40603647 1.10711235 11.90451572 1.33968611 16.4375 1.5625 C17.67790039 1.62727539 17.67790039 1.62727539 18.94335938 1.69335938 C20.96209549 1.79838033 22.98102951 1.89958559 25 2 C21.83170106 5.16829894 19.00285761 5.93291542 14.5546875 6.23046875 C12.73324219 6.20919922 12.73324219 6.20919922 10.875 6.1875 C9.65554688 6.18105469 8.43609375 6.17460937 7.1796875 6.16796875 C4 6 4 6 1 5 C0.67 3.35 0.34 1.7 0 0 Z " fill="#0666F7" transform="translate(321,277)"/>
<path d="M0 0 C18.46264003 -1.27958891 18.46264003 -1.27958891 26.65234375 4.91015625 C30.26878205 8.12944825 33.74697059 11.41141455 37 15 C36.67 15.66 36.34 16.32 36 17 C35.41734375 16.49210937 34.8346875 15.98421875 34.234375 15.4609375 C25.78285472 8.36484972 16.51089826 2.35972103 5.3125 1.4375 C4.31863281 1.35371094 3.32476562 1.26992187 2.30078125 1.18359375 C1.16189453 1.09271484 1.16189453 1.09271484 0 1 C0 0.67 0 0.34 0 0 Z " fill="#488DF4" transform="translate(240,97)"/>
<path d="M0 0 C0.79148438 -0.02578125 1.58296875 -0.0515625 2.3984375 -0.078125 C5.09524878 0.31929982 5.93229015 1.17506535 7.625 3.25 C6.965 5.56 6.305 7.87 5.625 10.25 C7.275 10.58 8.925 10.91 10.625 11.25 C9.965 11.91 9.305 12.57 8.625 13.25 C6.0234375 13.2265625 6.0234375 13.2265625 3 12.875 C1.99710938 12.76414062 0.99421875 12.65328125 -0.0390625 12.5390625 C-1.19535156 12.39597656 -1.19535156 12.39597656 -2.375 12.25 C-2.375 11.26 -2.375 10.27 -2.375 9.25 C-3.365 8.92 -4.355 8.59 -5.375 8.25 C-5.41741723 5.91705225 -5.41592937 3.58297433 -5.375 1.25 C-3.79577594 -0.32922406 -2.18056126 0.042341 0 0 Z M-4.375 2.25 C-4.375 3.9 -4.375 5.55 -4.375 7.25 C-1.405 7.25 1.565 7.25 4.625 7.25 C4.955 5.93 5.285 4.61 5.625 3.25 C4.61663938 2.01732652 4.61663938 2.01732652 2.55859375 2.15234375 C1.32302734 2.16974609 1.32302734 2.16974609 0.0625 2.1875 C-1.17693359 2.20103516 -1.17693359 2.20103516 -2.44140625 2.21484375 C-3.39853516 2.23224609 -3.39853516 2.23224609 -4.375 2.25 Z " fill="#C3D6F1" transform="translate(238.375,347.75)"/>
<path d="M0 0 C0.33 0 0.66 0 1 0 C1 7.26 1 14.52 1 22 C0.34 22 -0.32 22 -1 22 C-1.103125 23.0725 -1.20625 24.145 -1.3125 25.25 C-1.97202199 28.84739269 -2.45776191 30.45776191 -5 33 C-5.66 33 -6.32 33 -7 33 C-6.71125 32.154375 -6.4225 31.30875 -6.125 30.4375 C-5.75375 29.303125 -5.3825 28.16875 -5 27 C-4.649375 25.9584375 -4.29875 24.916875 -3.9375 23.84375 C-2.86592619 19.45029737 -2.77492122 15.55449765 -2.875 11.0625 C-2.88402344 10.28326172 -2.89304687 9.50402344 -2.90234375 8.70117188 C-2.92566309 6.80064553 -2.96152414 4.90027992 -3 3 C-2.67 3 -2.34 3 -2 3 C-1.67 5.97 -1.34 8.94 -1 12 C-0.67 8.04 -0.34 4.08 0 0 Z " fill="#0E5FDC" transform="translate(361,238)"/>
<path d="M0 0 C0.33 0 0.66 0 1 0 C0.85898331 6.34575127 -1.79280759 10.25994774 -5.30859375 15.44921875 C-7.71931342 19.08478445 -9.18900667 21.8900667 -9.625 26.25 C-9.74875 27.4875 -9.8725 28.725 -10 30 C-11.32 29.67 -12.64 29.34 -14 29 C-14.33 30.32 -14.66 31.64 -15 33 C-15.99 33 -16.98 33 -18 33 C-17.53851563 32.20980469 -17.07703125 31.41960937 -16.6015625 30.60546875 C-10.78580981 20.54858416 -5.35708073 10.30742015 0 0 Z " fill="#4D8FF0" transform="translate(197,152)"/>
<path d="M0 0 C0.66 0 1.32 0 2 0 C2.36546942 4.2638099 1.58333652 6.58630532 -1 10 C-1.64195312 10.30292969 -2.28390625 10.60585938 -2.9453125 10.91796875 C-5.35311071 12.18595374 -6.1542436 13.36021561 -7.625 15.625 C-11.26699656 20.75007763 -15.98985192 24.27704412 -21 28 C-21.99 27.34 -22.98 26.68 -24 26 C-22.35 25.67 -20.7 25.34 -19 25 C-18.67 24.01 -18.34 23.02 -18 22 C-17.113125 21.443125 -16.22625 20.88625 -15.3125 20.3125 C-8.67917572 16.11719944 -5.03278191 8.57464298 -1.296875 1.90625 C-0.86890625 1.2771875 -0.4409375 0.648125 0 0 Z " fill="#0052E1" transform="translate(355,274)"/>
<path d="M0 0 C0.66 0.33 1.32 0.66 2 1 C1.29875 1.66644531 0.5975 2.33289063 -0.125 3.01953125 C-6.56123528 9.2373963 -11.97691919 15.55893186 -17 23 C-18 21 -18 21 -17.1875 17.5625 C-16 14 -16 14 -14 11 C-13.34 11 -12.68 11 -12 11 C-12 10.34 -12 9.68 -12 9 C-10.23810568 7.58061562 -8.41435143 6.23733457 -6.5625 4.9375 C-3.13481849 2.64887381 -3.13481849 2.64887381 0 0 Z " fill="#073BA5" transform="translate(228,221)"/>
<path d="M0 0 C4.34477405 5.28929015 4.20694474 10.16254545 4.25 16.75 C4.270625 17.5234375 4.29125 18.296875 4.3125 19.09375 C4.35880963 25.99388487 2.97198715 31.37068381 -1.25 37 C-4.70950935 39.5160068 -6.81618986 39.41017747 -11 39 C-8 37 -8 37 -5.875 36 C-3.82955462 35.14139842 -3.82955462 35.14139842 -3 33 C-2.34 33 -1.68 33 -1 33 C3.49047789 22.33511501 3.09886306 11.03969967 0 0 Z " fill="#468CF7" transform="translate(313,205)"/>
<path d="M0 0 C0.33 0.66 0.66 1.32 1 2 C0.34 2 -0.32 2 -1 2 C-1 3.32 -1 4.64 -1 6 C0.32 6.33 1.64 6.66 3 7 C2.67 7.99 2.34 8.98 2 10 C1.34 10 0.68 10 0 10 C0.18433594 10.55171875 0.36867188 11.1034375 0.55859375 11.671875 C1.0918802 14.48460705 0.68538146 16.46535347 0.0625 19.25 C-0.22947266 20.58804688 -0.22947266 20.58804688 -0.52734375 21.953125 C-0.68332031 22.62859375 -0.83929688 23.3040625 -1 24 C-3.18388905 20.42555302 -3.41808212 17.20093529 -3.6875 13.0625 C-3.77386719 11.85722656 -3.86023438 10.65195313 -3.94921875 9.41015625 C-3.99417451 6.39120438 -3.73510981 3.91280353 -3 1 C-2.01 0.67 -1.02 0.34 0 0 Z " fill="#0339AE" transform="translate(276,228)"/>
<path d="M0 0 C0.66 0 1.32 0 2 0 C1.85957123 1.64630328 1.71250671 3.29204179 1.5625 4.9375 C1.48128906 5.85402344 1.40007812 6.77054688 1.31640625 7.71484375 C1 10 1 10 0 11 C-0.23363881 12.84891946 -0.41303635 14.70488031 -0.5625 16.5625 C-0.64628906 17.57441406 -0.73007813 18.58632812 -0.81640625 19.62890625 C-0.87699219 20.41136719 -0.93757812 21.19382813 -1 22 C-1.66 22 -2.32 22 -3 22 C-3 23.98 -3 25.96 -3 28 C-2.01 28.33 -1.02 28.66 0 29 C-1.485 32.465 -1.485 32.465 -3 36 C-3.33 36 -3.66 36 -4 36 C-5.53649146 23.12669321 -3.64446528 12.34258907 0 0 Z " fill="#0E5BDF" transform="translate(142,226)"/>
<path d="M0 0 C0.33 0 0.66 0 1 0 C1 2.97 1 5.94 1 9 C1.66 9 2.32 9 3 9 C2.9278125 10.22976563 2.855625 11.45953125 2.78125 12.7265625 C2.6874105 14.35936986 2.59366549 15.99218265 2.5 17.625 C2.45230469 18.43324219 2.40460938 19.24148438 2.35546875 20.07421875 C2.10986222 24.38987631 1.94401342 28.67503669 2 33 C1.34 32.67 0.68 32.34 0 32 C-1.00972922 26.28672202 -1.15429056 20.66476667 -1.125 14.875 C-1.12886719 14.10285156 -1.13273438 13.33070313 -1.13671875 12.53515625 C-1.12941084 8.24541548 -0.85027399 4.22437713 0 0 Z " fill="#0527B4" transform="translate(137,253)"/>
<path d="M0 0 C-1.32 0.33 -2.64 0.66 -4 1 C-4 1.99 -4 2.98 -4 4 C-10.5490142 7.37081613 -15.57488991 9.70048208 -23 9 C-19.34850631 5.91100795 -15.27815103 4.14879064 -10.9375 2.25 C-10.21755859 1.92128906 -9.49761719 1.59257812 -8.75585938 1.25390625 C-3.36112883 -1.12037628 -3.36112883 -1.12037628 0 0 Z " fill="#1163E1" transform="translate(240,176)"/>
<path d="M0 0 C4.62 0 9.24 0 14 0 C14 0.33 14 0.66 14 1 C10.04 1 6.08 1 2 1 C1.67 9.25 1.34 17.5 1 26 C6.06008639 24.52360997 6.06008639 24.52360997 8 21 C8 23.31 8 25.62 8 28 C5.36 28 2.72 28 0 28 C0 18.76 0 9.52 0 0 Z " fill="#CDDDF2" transform="translate(270,333)"/>
<path d="M0 0 C1.32 0.99 2.64 1.98 4 3 C2.39852104 5.10626032 0.79395125 7.21003738 -0.8125 9.3125 C-1.26431641 9.90740234 -1.71613281 10.50230469 -2.18164062 11.11523438 C-4.31610234 13.90405661 -6.41080206 16.61724973 -9 19 C-9.33 18.34 -9.66 17.68 -10 17 C-9.38125 16.113125 -8.7625 15.22625 -8.125 14.3125 C-5.75328628 10.61541685 -4.37969659 7.13908977 -3 3 C-1.4375 1.3125 -1.4375 1.3125 0 0 Z " fill="#3788FD" transform="translate(219,119)"/>
<path d="M0 0 C1.27657617 2.55315235 0.68772027 3.29026716 0 6 C-0.01516065 7.66187943 0.03002628 9.32492334 0.12109375 10.984375 C0.16943359 11.91894531 0.21777344 12.85351562 0.26757812 13.81640625 C0.32365234 14.78449219 0.37972656 15.75257813 0.4375 16.75 C0.48970703 17.73355469 0.54191406 18.71710938 0.59570312 19.73046875 C0.72511437 22.15398849 0.86006905 24.57706864 1 27 C-3.20884003 21.57337018 -4.37282285 16.09966098 -3.8125 9.25 C-3.28977325 5.61003688 -2.21854022 2.99020638 0 0 Z " fill="#0735AA" transform="translate(287,282)"/>
<path d="M0 0 C0.66 0 1.32 0 2 0 C6.44843472 7.68265649 10.40439452 15.25189481 13.0625 23.75 C13.27801514 24.42869141 13.49353027 25.10738281 13.71557617 25.80664062 C14.6882728 29.0987163 15.11042646 30.66872061 14 34 C13.48953125 32.40285156 13.48953125 32.40285156 12.96875 30.7734375 C9.9966428 21.7779708 6.53170795 13.81710161 1.5390625 5.7578125 C0 3 0 3 0 0 Z " fill="#89D1FE" transform="translate(346,202)"/>
<path d="M0 0 C0.66 0.33 1.32 0.66 2 1 C-1.75 4 -1.75 4 -4 4 C-4 4.66 -4 5.32 -4 6 C-5.65532623 7.01866229 -7.32260138 8.01810813 -9 9 C-10.15392455 11.3078491 -10.53437166 13.47230331 -11 16 C-11.5775 15.79375 -12.155 15.5875 -12.75 15.375 C-15.51967567 14.91338739 -16.64561267 15.57055055 -19 17 C-14.52515699 9.35547653 -7.96473025 3.82307052 0 0 Z " fill="#4A8FF4" transform="translate(235,105)"/>
<path d="M0 0 C7 0 7 0 8.75 1.125 C10.44466092 3.66699138 11.80334843 6.18786881 13 9 C12.67 9.66 12.34 10.32 12 11 C11.69707031 10.43410156 11.39414062 9.86820313 11.08203125 9.28515625 C10.66308594 8.55167969 10.24414062 7.81820312 9.8125 7.0625 C9.40644531 6.33160156 9.00039063 5.60070312 8.58203125 4.84765625 C6.54249265 2.4656766 5.02249259 2.48402906 2 2 C2.00523682 2.6705542 2.01047363 3.3411084 2.01586914 4.03198242 C2.03671605 7.083812 2.04968469 10.13562656 2.0625 13.1875 C2.07087891 14.24259766 2.07925781 15.29769531 2.08789062 16.38476562 C2.09111328 17.40634766 2.09433594 18.42792969 2.09765625 19.48046875 C2.10289307 20.41785889 2.10812988 21.35524902 2.11352539 22.32104492 C2.00082657 24.98049477 1.59376649 27.40920573 1 30 C0.67 30 0.34 30 0 30 C0 20.1 0 10.2 0 0 Z " fill="#478DF6" transform="translate(300,194)"/>
<path d="M0 0 C-1.54104843 3.78336048 -3.85809607 5.97944825 -6.875 8.6875 C-7.73867187 9.47511719 -8.60234375 10.26273438 -9.4921875 11.07421875 C-11.81278098 12.85623213 -13.15010688 13.60896815 -16 14 C-15.4409112 10.75728494 -14.5867822 9.06942576 -12 7 C-11.34 7 -10.68 7 -10 7 C-10 6.34 -10 5.68 -10 5 C-6.87794549 2.2154649 -4.35760865 0 0 0 Z " fill="#0565F8" transform="translate(218,104)"/>
<path d="M0 0 C2 3 2 3 1.93359375 5.05859375 C0.12339605 13.73899061 -2.22628766 22.91807105 -9 29 C-9.1875 25.625 -9.1875 25.625 -9 22 C-8.01 21.34 -7.02 20.68 -6 20 C-5.67 19.01 -5.34 18.02 -5 17 C-4.34 17 -3.68 17 -3 17 C-3 15.35 -3 13.7 -3 12 C-2.34 12 -1.68 12 -1 12 C-0.67 8.04 -0.34 4.08 0 0 Z " fill="#0D2C85" transform="translate(330,233)"/>
<path d="M0 0 C0.66 0.33 1.32 0.66 2 1 C1.52167725 1.44802979 1.04335449 1.89605957 0.55053711 2.35766602 C-1.65493433 4.42474659 -3.85872408 6.49361193 -6.0625 8.5625 C-6.81466797 9.26697266 -7.56683594 9.97144531 -8.34179688 10.69726562 C-12.9776538 15.05216153 -17.53472584 19.47023241 -22 24 C-22 19.87322664 -19.8002029 18.16826067 -17.125 15.3125 C-16.43470703 14.54583008 -16.43470703 14.54583008 -15.73046875 13.76367188 C-14.53364992 12.46451637 -13.27071716 11.22697116 -12 10 C-11.34 10 -10.68 10 -10 10 C-10 9.34 -10 8.68 -10 8 C-8.06640625 6.30859375 -8.06640625 6.30859375 -5.5625 4.4375 C-2.67307373 2.34532911 -2.67307373 2.34532911 0 0 Z " fill="#0056E7" transform="translate(222,211)"/>
<path d="M0 0 C0 0.33 0 0.66 0 1 C-1.02738281 1.04898438 -2.05476563 1.09796875 -3.11328125 1.1484375 C-11.21423322 1.57248395 -19.05153381 2.26548301 -27 4 C-20.36952369 -3.68532481 -8.76693211 -2.86267171 0 0 Z " fill="#3388FE" transform="translate(256,96)"/>
<path d="M0 0 C5.17609824 3.28157862 9.85989729 6.45924219 14 11 C10.45157459 10.22673538 7.17901746 8.9781678 3.8125 7.625 C2.74644531 7.20476562 1.68039062 6.78453125 0.58203125 6.3515625 C-2 5 -2 5 -3 2 C-2.01 1.34 -1.02 0.68 0 0 Z " fill="#3E8CF9" transform="translate(261,108)"/>
<path d="M0 0 C0.66 0.33 1.32 0.66 2 1 C-0.64 5.95 -3.28 10.9 -6 16 C-6.66 15.34 -7.32 14.68 -8 14 C-7.45652174 7.91304348 -7.45652174 7.91304348 -6 5 C-5.34 5 -4.68 5 -4 5 C-4 4.01 -4 3.02 -4 2 C-2.68 2 -1.36 2 0 2 C0 1.34 0 0.68 0 0 Z " fill="#0568F6" transform="translate(173,158)"/>
<path d="M0 0 C1.45489101 4.47208109 -0.03886361 6.7871885 -2 11 C-2.268125 12.051875 -2.53625 13.10375 -2.8125 14.1875 C-4.38162936 17.90385902 -6.55282688 19.0515978 -10 21 C-8.51991304 15.99886406 -6.3681664 11.67084403 -3.875 7.125 C-3.50246094 6.43664062 -3.12992188 5.74828125 -2.74609375 5.0390625 C-1.83500474 3.35705202 -0.91809685 1.67819564 0 0 Z " fill="#0040C3" transform="translate(199,173)"/>
<path d="M0 0 C11.73689015 2.9966528 11.73689015 2.9966528 16 6 C17.0625 9.75 17.0625 9.75 17 13 C16.52691406 12.63648437 16.05382812 12.27296875 15.56640625 11.8984375 C11.05489665 8.46863488 6.45330548 5.26640099 1.6875 2.19921875 C1.130625 1.80347656 0.57375 1.40773438 0 1 C0 0.67 0 0.34 0 0 Z " fill="#3388FE" transform="translate(259,113)"/>
<path d="M0 0 C0 3 0 3 -2 6 C-2.66 6 -3.32 6 -4 6 C-4 6.66 -4 7.32 -4 8 C-4.66 8 -5.32 8 -6 8 C-6.66 9.98 -7.32 11.96 -8 14 C-8.66 14 -9.32 14 -10 14 C-10 14.66 -10 15.32 -10 16 C-12.90548882 18.04169485 -14.40142046 19 -18 19 C-15.56332397 16.39506131 -13.12551596 13.79118463 -10.6875 11.1875 C-9.99720703 10.44951172 -9.30691406 9.71152344 -8.59570312 8.95117188 C-7.92861328 8.23896484 -7.26152344 7.52675781 -6.57421875 6.79296875 C-5.65515747 5.81106567 -5.65515747 5.81106567 -4.7175293 4.80932617 C-3.16996771 3.17905198 -1.59789755 1.58078486 0 0 Z " fill="#3288FE" transform="translate(211,111)"/>
<path d="M0 0 C0.66 0 1.32 0 2 0 C2 7.92 2 15.84 2 24 C1.01 24 0.02 24 -1 24 C-0.67 16.08 -0.34 8.16 0 0 Z " fill="#033079" transform="translate(273,204)"/>
<path d="M0 0 C1 2 1 2 1 5 C1.66 5.33 2.32 5.66 3 6 C1.625 8 1.625 8 0 10 C-0.66 10 -1.32 10 -2 10 C-2 10.66 -2 11.32 -2 12 C-3.32 12 -4.64 12 -6 12 C-6 12.99 -6 13.98 -6 15 C-6.66 15 -7.32 15 -8 15 C-6.62712658 11.30123909 -4.93644547 8.0485524 -2.875 4.6875 C-2.33617187 3.80449219 -1.79734375 2.92148438 -1.2421875 2.01171875 C-0.83226562 1.34785156 -0.42234375 0.68398437 0 0 Z " fill="#0C62E9" transform="translate(175,148)"/>
<path d="M0 0 C-0.66 0 -1.32 0 -2 0 C-1.67 1.65 -1.34 3.3 -1 5 C-0.34 5 0.32 5 1 5 C1 4.34 1 3.68 1 3 C1.66 3 2.32 3 3 3 C3.12375 4.093125 3.2475 5.18625 3.375 6.3125 C3.75464801 10.07381802 3.75464801 10.07381802 6 13 C5.67 13.99 5.34 14.98 5 16 C4.55269531 15.35933594 4.10539062 14.71867187 3.64453125 14.05859375 C0.12262889 9.01979528 -3.41650072 3.99518082 -7 -1 C-3.51418144 -2.2020064 -3.32007656 -2.21338437 0 0 Z " fill="#0E34A3" transform="translate(347,216)"/>
<path d="M0 0 C1.8871875 0.0309375 1.8871875 0.0309375 3.8125 0.0625 C1.38482217 2.49017783 -1.11686876 3.52718438 -4.1875 5.0625 C-6.22991995 6.34247811 -8.20315466 7.69235679 -10.1875 9.0625 C-10.9375 7.3125 -10.9375 7.3125 -11.1875 5.0625 C-7.94417832 1.0083479 -5.0838539 -0.08334187 0 0 Z " fill="#3688FD" transform="translate(235.1875,109.9375)"/>
<path d="M0 0 C1.794375 -0.00773437 1.794375 -0.00773437 3.625 -0.015625 C6.85804974 0.23882799 9.09417459 0.86312878 12 2.25 C12 2.58 12 2.91 12 3.25 C10.72125 3.22679687 9.4425 3.20359375 8.125 3.1796875 C6.41667255 3.16091467 4.70833873 3.14271611 3 3.125 C2.16082031 3.10824219 1.32164062 3.09148437 0.45703125 3.07421875 C-5.05254877 3.03150883 -9.71048292 3.69497993 -15 5.25 C-10.83602072 0.4285503 -6.13692992 -0.02645228 0 0 Z " fill="#1157D3" transform="translate(308,271.75)"/>
<path d="M0 0 C2.00720923 0.28674418 4.0085944 0.61866701 6 1 C2.29939798 4.92488093 -1.4906925 8.02215543 -6 11 C-6.66 11 -7.32 11 -8 11 C-8 10.01 -8 9.02 -8 8 C-7.34 8 -6.68 8 -6 8 C-5.67 6.68 -5.34 5.36 -5 4 C-3.35 4.33 -1.7 4.66 0 5 C-0.2784375 4.0409375 -0.2784375 4.0409375 -0.5625 3.0625 C-0.706875 2.381875 -0.85125 1.70125 -1 1 C-0.67 0.67 -0.34 0.34 0 0 Z " fill="#094AC3" transform="translate(237,210)"/>
<path d="M0 0 C0.33 0.99 0.66 1.98 1 3 C0.03114628 4.68496298 -0.96986723 6.35178756 -2 8 C-2 8.99 -2 9.98 -2 11 C-2.99 11 -3.98 11 -5 11 C-5.33 12.32 -5.66 13.64 -6 15 C-7.32 15.33 -8.64 15.66 -10 16 C-8.55797524 11.84848662 -6.4989562 8.70021555 -3.875 5.1875 C-3.15054688 4.21167969 -2.42609375 3.23585937 -1.6796875 2.23046875 C-0.84824219 1.12638672 -0.84824219 1.12638672 0 0 Z " fill="#3589FD" transform="translate(189,136)"/>
<path d="M0 0 C0.99 0.495 0.99 0.495 2 1 C2 1.99 2 2.98 2 4 C2.66 4 3.32 4 4 4 C4.79953138 7.28696233 5.09658936 8.71023192 4 12 C3.65179959 13.66362417 3.31595508 15.32995171 3 17 C2.34 17 1.68 17 1 17 C0.67 14.36 0.34 11.72 0 9 C0.66 9 1.32 9 2 9 C1.34 6.03 0.68 3.06 0 0 Z " fill="#003BA3" transform="translate(265,158)"/>
<path d="M0 0 C0.66 0.33 1.32 0.66 2 1 C1.3503125 1.72703125 1.3503125 1.72703125 0.6875 2.46875 C-2.21894437 5.96724786 -4.43057133 8.63474308 -4.5 13.3125 C-4.2632866 17.07943239 -4.2632866 17.07943239 -2 20 C-3.65 19.67 -5.3 19.34 -7 19 C-7.45490918 12.63127145 -6.55349016 8.35994669 -3 3 C-2.02821881 1.97255593 -1.03495238 0.96378087 0 0 Z " fill="#468BF4" transform="translate(298,224)"/>
<path d="M0 0 C3 1 3 1 4 3 C4.07194869 5.88370333 4.09291708 8.74239664 4.0625 11.625 C4.05798828 12.42679688 4.05347656 13.22859375 4.04882812 14.0546875 C4.03703168 16.03649006 4.01909605 18.01825433 4 20 C2.08437709 17.12656563 1.70789101 16.22496459 1.3671875 12.98828125 C1.28339844 12.23095703 1.19960938 11.47363281 1.11328125 10.69335938 C1.03464844 9.90767578 0.95601563 9.12199219 0.875 8.3125 C0.78863281 7.51521484 0.70226562 6.71792969 0.61328125 5.89648438 C0.40151528 3.93176674 0.19978527 1.96597204 0 0 Z " fill="#0565F8" transform="translate(357,233)"/>
<path d="M0 0 C1.29608947 0.93137592 2.58671632 1.8703566 3.875 2.8125 C4.59429687 3.33457031 5.31359375 3.85664063 6.0546875 4.39453125 C8 6 8 6 10 9 C9.01 9.495 9.01 9.495 8 10 C7.67 10.66 7.34 11.32 7 12 C3.31959133 9.67553136 1.7005094 7.92034525 0.6875 3.75 C0.460625 2.5125 0.23375 1.275 0 0 Z " fill="#A6D3FD" transform="translate(327,181)"/>
<path d="M0 0 C1 3 1 3 -0.36328125 5.91796875 C-1.32814453 7.53638672 -1.32814453 7.53638672 -2.3125 9.1875 C-3.26576172 10.81751953 -3.26576172 10.81751953 -4.23828125 12.48046875 C-5.11033203 13.72763672 -5.11033203 13.72763672 -6 15 C-6.66 15 -7.32 15 -8 15 C-8.66 15.99 -9.32 16.98 -10 18 C-10.33 17.34 -10.66 16.68 -11 16 C-7.37 10.72 -3.74 5.44 0 0 Z " fill="#B0D7FE" transform="translate(197,133)"/>
<path d="M0 0 C0.33 0.66 0.66 1.32 1 2 C-0.109375 4.56640625 -0.109375 4.56640625 -1.75 7.5625 C-2.54664063 9.04943359 -2.54664063 9.04943359 -3.359375 10.56640625 C-5 13 -5 13 -8 14 C-7.60002115 8.53362233 -5.558228 5.02379055 -2 1 C-1.34 0.67 -0.68 0.34 0 0 Z " fill="#0D3DA5" transform="translate(355,284)"/>
<path d="M0 0 C2.3125 0.8125 2.3125 0.8125 3.3125 2.8125 C1.69257835 3.67625896 0.06638139 4.52825854 -1.5625 5.375 C-2.91988281 6.08849609 -2.91988281 6.08849609 -4.3046875 6.81640625 C-5.09101563 7.14511719 -5.87734375 7.47382813 -6.6875 7.8125 C-7.3475 7.4825 -8.0075 7.1525 -8.6875 6.8125 C-6.92723691 2.55853086 -4.90031948 -0.34188275 0 0 Z " fill="#044DC8" transform="translate(256.6875,200.1875)"/>
<path d="M0 0 C0.99 0 1.98 0 3 0 C1.94227992 3.52573359 0.67086013 6.70399547 -1.0625 9.9375 C-3.00020871 13.67605324 -3.6515726 16.8188712 -4 21 C-4.33 21 -4.66 21 -5 21 C-5 17.37 -5 13.74 -5 10 C-4.34 10 -3.68 10 -3 10 C-2.86722656 9.36191406 -2.73445312 8.72382813 -2.59765625 8.06640625 C-2.42105469 7.24011719 -2.24445313 6.41382813 -2.0625 5.5625 C-1.88847656 4.73878906 -1.71445313 3.91507813 -1.53515625 3.06640625 C-1 1 -1 1 0 0 Z " fill="#4C8EF2" transform="translate(170,170)"/>
<path d="M0 0 C1.15518918 0.90484792 2.29885406 1.8244206 3.4375 2.75 C4.07558594 3.26046875 4.71367187 3.7709375 5.37109375 4.296875 C7.18810554 6.19667629 7.60423197 7.43586908 8 10 C4.84669446 9.39305845 2.81111133 8.3583335 0.25 6.4375 C-0.36359375 5.98246094 -0.9771875 5.52742188 -1.609375 5.05859375 C-2.06828125 4.70925781 -2.5271875 4.35992187 -3 4 C-2.34 3.67 -1.68 3.34 -1 3 C-0.34 3.33 0.32 3.66 1 4 C0.67 2.68 0.34 1.36 0 0 Z " fill="#AFD5FE" transform="translate(273,111)"/>
<path d="M0 0 C0.99 0.33 1.98 0.66 3 1 C1.88321917 2.6721852 0.75633648 4.33762803 -0.375 6 C-1.00148437 6.928125 -1.62796875 7.85625 -2.2734375 8.8125 C-2.84320313 9.534375 -3.41296875 10.25625 -4 11 C-4.66 11 -5.32 11 -6 11 C-6.40060526 7.49470398 -6.15413141 6.2260594 -4.125 3.25 C-2 1 -2 1 0 0 Z " fill="#0768F9" transform="translate(187,135)"/>
<path d="M0 0 C1.23086034 3.69258103 0.66728638 4.58206293 -1 8 C-1.95824253 9.36365283 -2.94721175 10.70794169 -4 12 C-5.32 11.67 -6.64 11.34 -8 11 C-5.36 7.37 -2.72 3.74 0 0 Z " fill="#498DF1" transform="translate(215,122)"/>
<path d="M0 0 C0.66 0.33 1.32 0.66 2 1 C0.625 2.5 0.625 2.5 -1 4 C-1.66 4 -2.32 4 -3 4 C-3.185625 4.70125 -3.37125 5.4025 -3.5625 6.125 C-5.54820026 10.09640051 -8.53933276 12.3073418 -12 15 C-10.09418525 8.71081134 -5.45314686 3.5655191 0 0 Z " fill="#0044C7" transform="translate(233,120)"/>
<path d="M0 0 C0 2 0 2 -2.5 4.625 C-3.325 5.40875 -4.15 6.1925 -5 7 C-4.67 7.99 -4.34 8.98 -4 10 C-4.99 10.66 -5.98 11.32 -7 12 C-7 11.34 -7 10.68 -7 10 C-8.65 10.66 -10.3 11.32 -12 12 C-4.57142857 0 -4.57142857 0 0 0 Z " fill="#1362D7" transform="translate(208,109)"/>
<path d="M0 0 C-0.99 0.66 -1.98 1.32 -3 2 C-3 2.66 -3 3.32 -3 4 C-2.34 4 -1.68 4 -1 4 C-0.67 3.34 -0.34 2.68 0 2 C0.99 2.66 1.98 3.32 3 4 C-0.96 5.32 -4.92 6.64 -9 8 C-8.67 7.01 -8.34 6.02 -8 5 C-7.34 5 -6.68 5 -6 5 C-6 4.01 -6 3.02 -6 2 C-6.66 1.67 -7.32 1.34 -8 1 C-4.93251126 -0.86240388 -3.40254489 -1.2151946 0 0 Z " fill="#AED5FE" transform="translate(239,100)"/>
<path d="M0 0 C0.66 0.33 1.32 0.66 2 1 C1.67 2.98 1.34 4.96 1 7 C-0.65 7.33 -2.3 7.66 -4 8 C-4.33 7.34 -4.66 6.68 -5 6 C-5.99 5.34 -6.98 4.68 -8 4 C-6.71349294 3.30289269 -5.42059335 2.61757124 -4.125 1.9375 C-3.40570313 1.55464844 -2.68640625 1.17179687 -1.9453125 0.77734375 C-1.30335938 0.52082031 -0.66140625 0.26429688 0 0 Z " fill="#023CBA" transform="translate(336,302)"/>
<path d="M0 0 C0.33 0 0.66 0 1 0 C1 2.97 1 5.94 1 9 C1.99 8.67 2.98 8.34 4 8 C5.17571451 11.67410785 5.07366746 15.16929183 5 19 C2.11155759 17.5557788 1.65164193 15.32847842 0.59765625 12.41015625 C-0.42347002 8.29228104 -0.23296207 4.21057376 0 0 Z " fill="#085DEC" transform="translate(278,223)"/>
<path d="M0 0 C1.46257541 4.46573024 -0.10551963 6.77385149 -2 11 C-2.39764263 12.98821313 -2.75455166 14.98732362 -3 17 C-3.66 17 -4.32 17 -5 17 C-5.33 17.99 -5.66 18.98 -6 20 C-7 18 -7 18 -6.47094727 16.12060547 C-6.17244873 15.37697754 -5.8739502 14.63334961 -5.56640625 13.8671875 C-5.24736328 13.06152344 -4.92832031 12.25585938 -4.59960938 11.42578125 C-4.25736328 10.58402344 -3.91511719 9.74226562 -3.5625 8.875 C-3.22412109 8.02550781 -2.88574219 7.17601562 -2.53710938 6.30078125 C-1.69823043 4.19767629 -0.85228875 2.09769845 0 0 Z " fill="#155FD5" transform="translate(158,179)"/>
<path d="M0 0 C3.34726719 1.11575573 3.62079748 1.51344622 5.25 4.4375 C5.8275 5.613125 6.405 6.78875 7 8 C6.67 8.66 6.34 9.32 6 10 C5.34 10 4.68 10 4 10 C1.46093936 7.38626111 0.07743148 5.87110419 -0.25 2.1875 C-0.1675 1.465625 -0.085 0.74375 0 0 Z " fill="#0563F8" transform="translate(344,206)"/>
<path d="M0 0 C0.66 0.33 1.32 0.66 2 1 C1.34 2.98 0.68 4.96 0 7 C-0.33 6.34 -0.66 5.68 -1 5 C-1.9075 5.45375 -2.815 5.9075 -3.75 6.375 C-6.16666667 7.58333333 -8.58333333 8.79166667 -11 10 C-7.65996398 5.67760044 -4.67248931 2.82522609 0 0 Z " fill="#135FD3" transform="translate(219,99)"/>
<path d="M0 0 C1.231394 2.46278801 1.07159196 4.2795055 1 7 C0.0925 7.144375 -0.815 7.28875 -1.75 7.4375 C-4.21476956 7.86409473 -6.58847107 8.35074221 -9 9 C-8.34 8.01 -7.68 7.02 -7 6 C-6.34 6 -5.68 6 -5 6 C-5 5.34 -5 4.68 -5 4 C-3.37373596 2.61767557 -1.7074998 1.28062485 0 0 Z " fill="#013ABB" transform="translate(347,293)"/>
<path d="M0 0 C7.57142857 4 7.57142857 4 10 8 C7.69 7.34 5.38 6.68 3 6 C2.67 6.66 2.34 7.32 2 8 C1.34 5.36 0.68 2.72 0 0 Z " fill="#1265E7" transform="translate(330,190)"/>
<path d="M0 0 C1.48055721 3.84944874 0.33585208 6.22818235 -1 10 C-1 11.32 -1 12.64 -1 14 C0.65 14.33 2.3 14.66 4 15 C4 15.33 4 15.66 4 16 C2.00045254 16.04254356 -0.00041636 16.04080783 -2 16 C-3 15 -3 15 -3.25 11.375 C-3.21809755 6.95651081 -1.96214245 3.9242849 0 0 Z " fill="#ACDBFE" transform="translate(169,177)"/>
<path d="M0 0 C0.66 0.33 1.32 0.66 2 1 C0.88059018 5.85077588 -0.1334716 8.777893 -4 12 C-4.1875 8.625 -4.1875 8.625 -4 5 C-3.01 4.34 -2.02 3.68 -1 3 C-0.67 2.01 -0.34 1.02 0 0 Z " fill="#09349C" transform="translate(325,250)"/>
<path d="M0 0 C2.79958342 4.19937513 3.11598878 6.09705438 3.0625 11.125 C3.05347656 12.22070312 3.04445313 13.31640625 3.03515625 14.4453125 C3.02355469 15.28835937 3.01195312 16.13140625 3 17 C0.84940691 13.46813168 0.6202272 10.33712007 0.375 6.25 C0.30023438 5.07953125 0.22546875 3.9090625 0.1484375 2.703125 C0.09945313 1.81109375 0.05046875 0.9190625 0 0 Z " fill="#123C9B" transform="translate(272,235)"/>
<path d="M0 0 C0.66 0.66 1.32 1.32 2 2 C2.99 2 3.98 2 5 2 C5 3.32 5 4.64 5 6 C4.01 5.67 3.02 5.34 2 5 C-0.7839183 6.39195915 -0.97898997 8.15575779 -2 11 C-3.13643966 7.59068103 -2.86747764 6.99664544 -1.5625 3.8125 C-1.13130859 2.73935547 -1.13130859 2.73935547 -0.69140625 1.64453125 C-0.46324219 1.10183594 -0.23507813 0.55914062 0 0 Z " fill="#0B63E0" transform="translate(150,200)"/>
<path d="M0 0 C-5.14285714 4.42857143 -5.14285714 4.42857143 -9 5 C-8.8125 3.125 -8.8125 3.125 -8 1 C-4.70594381 -0.82039948 -3.63772813 -1.21257604 0 0 Z " fill="#0663FA" transform="translate(228,99)"/>
<path d="M0 0 C0.33 0 0.66 0 1 0 C1.11381955 6.76594019 0.88021369 13.28837062 0 20 C-0.33 20 -0.66 20 -1 20 C-2.12067256 12.88221482 -1.7958955 6.97579243 0 0 Z " fill="#0041C8" transform="translate(281,194)"/>
<path d="M0 0 C-0.61538462 5.53846154 -0.61538462 5.53846154 -2.5625 7.875 C-3.036875 8.24625 -3.51125 8.6175 -4 9 C-4.33 6.69 -4.66 4.38 -5 2 C-2 0 -2 0 0 0 Z " fill="#092D8C" transform="translate(215,176)"/>
<path d="M0 0 C7 8.44827586 7 8.44827586 7 12 C6.34 12 5.68 12 5 12 C4.34 11.01 3.68 10.02 3 9 C2.01 8.67 1.02 8.34 0 8 C0.66 7.67 1.32 7.34 2 7 C2 6.01 2 5.02 2 4 C1.34 4 0.68 4 0 4 C0 2.68 0 1.36 0 0 Z " fill="#115FD9" transform="translate(301,137)"/>
<path d="M0 0 C4.2026393 2.63886654 7.56638098 5.36440339 11 9 C5.67390948 7.71439194 3.25276477 6.5987364 0 2 C0 1.34 0 0.68 0 0 Z " fill="#4E8DEB" transform="translate(264,110)"/>
<path d="M0 0 C1.32 0.33 2.64 0.66 4 1 C2.92250558 1.82022749 1.83770492 2.63086169 0.75 3.4375 C0.14671875 3.88996094 -0.4565625 4.34242188 -1.078125 4.80859375 C-3.06292756 6.03900997 -4.71987655 6.56112668 -7 7 C-7 6.01 -7 5.02 -7 4 C-5.68 4 -4.36 4 -3 4 C-3 3.34 -3 2.68 -3 2 C-2.01 2 -1.02 2 0 2 C0 1.34 0 0.68 0 0 Z " fill="#0A309E" transform="translate(316,263)"/>
<path d="M0 0 C2.61047801 1.305239 2.68066423 2.35826574 3.625 5.0625 C3.88539063 5.79597656 4.14578125 6.52945313 4.4140625 7.28515625 C4.60742188 7.85105469 4.80078125 8.41695312 5 9 C4.01 9.495 4.01 9.495 3 10 C3 9.34 3 8.68 3 8 C2.34 8 1.68 8 1 8 C0.67 8.99 0.34 9.98 0 11 C-1.11491267 7.65526199 -0.80511271 5.39936478 0 2 C0 1.34 0 0.68 0 0 Z " fill="#0C5AE2" transform="translate(312,157)"/>
<path d="M0 0 C0.66 0 1.32 0 2 0 C3 3 3 3 2.00390625 5.04296875 C1.52824219 5.75066406 1.05257812 6.45835937 0.5625 7.1875 C0.08941406 7.90292969 -0.38367188 8.61835938 -0.87109375 9.35546875 C-1.24363281 9.89816406 -1.61617187 10.44085938 -2 11 C-2.99 9.68 -3.98 8.36 -5 7 C-3.68 7 -2.36 7 -1 7 C-0.67 4.69 -0.34 2.38 0 0 Z " fill="#09379D" transform="translate(226,147)"/>
<path d="M0 0 C1 2 1 2 0.44140625 4.1640625 C0.15136719 4.97617188 -0.13867188 5.78828125 -0.4375 6.625 C-0.72496094 7.44226563 -1.01242188 8.25953125 -1.30859375 9.1015625 C-1.53675781 9.72804687 -1.76492187 10.35453125 -2 11 C-2.99 11 -3.98 11 -5 11 C-3.77472971 6.94718288 -2.30119506 3.55639236 0 0 Z " fill="#1961D8" transform="translate(166,163)"/>
<path d="M0 0 C0 3 0 6 0 9 C-1.98 9.33 -3.96 9.66 -6 10 C-4.6302836 6.00499382 -2.74277578 3.19990508 0 0 Z " fill="#1260D6" transform="translate(182,138)"/>
<path d="M0 0 C-0.99 0.66 -1.98 1.32 -3 2 C-3 2.99 -3 3.98 -3 5 C-5.66666667 4.33333333 -8.33333333 3.66666667 -11 3 C-9.73581754 2.30034557 -8.46334598 1.61565237 -7.1875 0.9375 C-6.47980469 0.55464844 -5.77210938 0.17179687 -5.04296875 -0.22265625 C-3 -1 -3 -1 0 0 Z " fill="#1161D4" transform="translate(232,95)"/>
<path d="M0 0 C0.33 0.66 0.66 1.32 1 2 C1.66 2 2.32 2 3 2 C1.90931332 5.77545388 1.0916909 8.47043472 -2 11 C-1.47731534 8.23723823 -0.89130413 5.6739124 0 3 C-0.66 2.67 -1.32 2.34 -2 2 C-1.34 1.34 -0.68 0.68 0 0 Z " fill="#093591" transform="translate(205,245)"/>
<path d="M0 0 C0.33 0 0.66 0 1 0 C0.88490339 1.41750563 0.75746342 2.83401169 0.625 4.25 C0.55539063 5.03890625 0.48578125 5.8278125 0.4140625 6.640625 C-0.01507113 9.085877 -0.78600638 10.84836903 -2 13 C-3.71050559 8.02398374 -2.00885647 4.57383705 0 0 Z " fill="#1258D7" transform="translate(146,212)"/>
<path d="M0 0 C0.99 1.32 1.98 2.64 3 4 C0.03 6.475 0.03 6.475 -3 9 C-3.33 8.34 -3.66 7.68 -4 7 C-3.22265625 5.2734375 -3.22265625 5.2734375 -2.0625 3.375 C-1.381875 2.26125 -0.70125 1.1475 0 0 Z " fill="#3487FD" transform="translate(178,152)"/>
<path d="M0 0 C-0.56371414 3.26954202 -1.49962266 4.82575883 -4 7 C-4.66 6.67 -5.32 6.34 -6 6 C-5.6875 4.125 -5.6875 4.125 -5 2 C-2 0 -2 0 0 0 Z " fill="#0766FB" transform="translate(201,119)"/>
<path d="M0 0 C0 0.66 0 1.32 0 2 C2.475 2.99 2.475 2.99 5 4 C1.69564916 5.12377697 -0.0506862 4.89554742 -3.25 3.5625 C-3.95640625 3.27503906 -4.6628125 2.98757813 -5.390625 2.69140625 C-5.92171875 2.46324219 -6.4528125 2.23507812 -7 2 C-7 1.67 -7 1.34 -7 1 C-2.25 0 -2.25 0 0 0 Z " fill="#08359B" transform="translate(302,314)"/>
<path d="M0 0 C1.5 1.3125 1.5 1.3125 3 3 C3 3.99 3 4.98 3 6 C2.01 6.33 1.02 6.66 0 7 C-0.66 6.67 -1.32 6.34 -2 6 C-1.49396008 3.83125748 -1.00016187 2.00032373 0 0 Z " fill="#0636A0" transform="translate(326,182)"/>
<path d="M0 0 C0.93423645 3.01031744 1.04449911 3.86650268 0 7 C-0.99 7 -1.98 7 -3 7 C-3 7.99 -3 8.98 -3 10 C-3.66 10 -4.32 10 -5 10 C-3.66511872 6.40608886 -2.03977277 3.24509304 0 0 Z " fill="#1261D5" transform="translate(172,153)"/>
<path d="M0 0 C0.66 0.33 1.32 0.66 2 1 C-0.64 3.64 -3.28 6.28 -6 9 C-6.33 8.01 -6.66 7.02 -7 6 C-4.69 4.02 -2.38 2.04 0 0 Z " fill="#0F3FA0" transform="translate(228,221)"/>
<path d="M0 0 C2 3 2 3 2 5 C1.01 5 0.02 5 -1 5 C-1 5.99 -1 6.98 -1 8 C-1.66 7.67 -2.32 7.34 -3 7 C-3 3 -3 3 -1.5 1.25 C-1.005 0.8375 -0.51 0.425 0 0 Z " fill="#003DBF" transform="translate(279,235)"/>
<path d="M0 0 C0.66 0 1.32 0 2 0 C3.6875 2.3125 3.6875 2.3125 5 5 C4.67 5.99 4.34 6.98 4 8 C0 3.375 0 3.375 0 0 Z " fill="#97DAFD" transform="translate(346,202)"/>
<path d="M0 0 C0.99 0.495 0.99 0.495 2 1 C2 1.99 2 2.98 2 4 C2.66 4 3.32 4 4 4 C4.33 5.65 4.66 7.3 5 9 C4.01 9.495 4.01 9.495 3 10 C0 3.375 0 3.375 0 0 Z " fill="#0E3699" transform="translate(265,158)"/>
<path d="M0 0 C-0.66 0 -1.32 0 -2 0 C-1.67 1.32 -1.34 2.64 -1 4 C-4.16115776 2.63016497 -4.9927092 2.0109362 -7 -1 C-3.51418144 -2.2020064 -3.32007656 -2.21338437 0 0 Z " fill="#073F9F" transform="translate(347,216)"/>
<path d="M0 0 C2.97 0.495 2.97 0.495 6 1 C3.37801226 3.15377564 1.35595828 4.40072174 -2 5 C-1.34 3.35 -0.68 1.7 0 0 Z " fill="#0C4CC0" transform="translate(250,203)"/>
<path d="M0 0 C1.32 0 2.64 0 4 0 C4 1.32 4 2.64 4 4 C2.68 4.33 1.36 4.66 0 5 C0 3.35 0 1.7 0 0 Z " fill="#012E9D" transform="translate(270,194)"/>
<path d="M0 0 C1.11375 0.598125 2.2275 1.19625 3.375 1.8125 C4.00148438 2.14894531 4.62796875 2.48539062 5.2734375 2.83203125 C7 4 7 4 9 7 C6.69 6.34 4.38 5.68 2 5 C2 4.01 2 3.02 2 2 C1.34 2 0.68 2 0 2 C0 1.34 0 0.68 0 0 Z " fill="#1356D1" transform="translate(267,100)"/>
<path d="M0 0 C2 1 2 1 3.125 4.0625 C3.41375 5.031875 3.7025 6.00125 4 7 C3.01 7 2.02 7 1 7 C-0.0625 5.1875 -0.0625 5.1875 -1 3 C-0.67 2.01 -0.34 1.02 0 0 Z " fill="#0042C2" transform="translate(350,219)"/>
<path d="M0 0 C1.98 0 3.96 0 6 0 C3.06171403 2.50298434 0.82097239 3.46930939 -3 4 C-2.67 3.34 -2.34 2.68 -2 2 C-1.34 2 -0.68 2 0 2 C0 1.34 0 0.68 0 0 Z " fill="#0765F6" transform="translate(217,185)"/>
<path d="M0 0 C0.66 0 1.32 0 2 0 C2.33 2.31 2.66 4.62 3 7 C2.34 7 1.68 7 1 7 C-0.0625 5.1875 -0.0625 5.1875 -1 3 C-0.67 2.01 -0.34 1.02 0 0 Z " fill="#0031A3" transform="translate(208,178)"/>
<path d="M0 0 C0.33 1.32 0.66 2.64 1 4 C0.01 4.66 -0.98 5.32 -2 6 C-2.99 5.34 -3.98 4.68 -5 4 C-3.35 2.68 -1.7 1.36 0 0 Z " fill="#3685F9" transform="translate(217,106)"/>
</svg>
